<svg width="24" height="24" viewBox="0 0 24 24" fill="none" xmlns="http://www.w3.org/2000/svg">
<path d="M11.9999 22.9122C18.0255 22.9122 22.9102 18.0275 22.9102 12.0019C22.9102 5.97626 18.0255 1.09155 11.9999 1.09155C5.97433 1.09155 1.08961 5.97626 1.08961 12.0019C1.08961 18.0275 5.97433 22.9122 11.9999 22.9122Z" fill="url(#paint0_linear_180_733)"/>
<path d="M11.9999 22.9122C18.0255 22.9122 22.9102 18.0275 22.9102 12.0019C22.9102 5.97626 18.0255 1.09155 11.9999 1.09155C5.97433 1.09155 1.08961 5.97626 1.08961 12.0019C1.08961 18.0275 5.97433 22.9122 11.9999 22.9122Z" fill="url(#paint1_linear_180_733)"/>
<path d="M11.9999 1.09174C5.97451 1.09174 1.08981 5.97644 1.08981 12.0019C1.08981 18.0273 5.97451 22.912 11.9999 22.912C18.0253 22.912 22.91 18.0273 22.91 12.0019C22.91 5.97644 18.0253 1.09174 11.9999 1.09174ZM11.9999 15.4193C6.0611 15.4193 1.24698 13.8894 1.24698 12.0019C1.24698 10.1143 6.0611 8.58444 11.9999 8.58444C17.9387 8.58444 22.7529 10.1143 22.7529 12.0019C22.7529 13.8894 17.9387 15.4193 11.9999 15.4193Z" fill="url(#paint2_linear_180_733)"/>
<path d="M11.9999 15.4195C17.9386 15.4195 22.7529 13.8893 22.7529 12.0018C22.7529 10.1143 17.9386 8.58417 11.9999 8.58417C6.06123 8.58417 1.24698 10.1143 1.24698 12.0018C1.24698 13.8893 6.06123 15.4195 11.9999 15.4195Z" fill="url(#paint3_linear_180_733)"/>
<path d="M23.9992 12.0651C23.9996 12.0437 23.9999 12.0226 23.9999 12.0018C23.9999 11.9811 23.9996 11.96 23.9992 11.9386C23.9828 8.75694 22.7368 5.76809 20.4852 3.51651C18.2336 1.26498 15.2448 0.0189134 12.0631 0.002584C12.0418 0.00211341 12.0206 0.00183105 11.9999 0.00183105C11.9792 0.00183105 11.9581 0.00211341 11.9367 0.002584C8.75503 0.0189134 5.76623 1.26498 3.51465 3.51656C1.26308 5.76814 0.0170061 8.75694 0.000676647 11.9386C0.000206059 11.96 -7.62939e-05 11.9811 -7.62939e-05 12.0018C-7.62939e-05 12.0225 0.000206059 12.0437 0.000676647 12.0651C0.0170061 15.2467 1.26303 18.2356 3.51461 20.4871C5.76618 22.7387 8.75498 23.9847 11.9367 24.0011C11.9581 24.0015 11.9792 24.0018 11.9999 24.0018C12.0206 24.0018 12.0417 24.0015 12.0631 24.0011C15.2448 23.9847 18.2336 22.7387 20.4851 20.4871C22.7368 18.2355 23.9828 15.2467 23.9992 12.0651ZM19.2381 13.8727C18.6355 14.1056 17.9678 14.3055 17.25 14.4703C17.3191 13.6674 17.3547 12.841 17.3547 12.0019C17.3547 11.1628 17.3191 10.3363 17.25 9.5335C17.9678 9.69821 18.6355 9.89811 19.2381 10.1311C20.9136 10.7787 21.6636 11.5374 21.6636 12.0019C21.6636 12.4664 20.9136 13.225 19.2381 13.8727ZM11.9999 21.6655C11.5354 21.6655 10.7767 20.9155 10.1291 19.24C9.89616 18.6374 9.69621 17.9697 9.5315 17.2519C10.3343 17.321 11.1608 17.3567 11.9999 17.3567C12.839 17.3567 13.6654 17.321 14.4683 17.2519C14.3035 17.9697 14.1036 18.6374 13.8707 19.24C13.2231 20.9155 12.4645 21.6655 11.9999 21.6655ZM11.9999 15.0204C11.0142 15.0204 10.0522 14.9679 9.13498 14.8668C9.0339 13.9495 8.98138 12.9875 8.98138 12.0018C8.98138 11.0161 9.0339 10.0541 9.13498 9.13689C10.0522 9.03581 11.0142 8.98329 11.9999 8.98329C12.9856 8.98329 13.9476 9.03581 14.8649 9.13689C14.9659 10.0541 15.0185 11.0161 15.0185 12.0018C15.0185 12.9875 14.9659 13.9495 14.8649 14.8668C13.9476 14.9679 12.9856 15.0204 11.9999 15.0204ZM2.33621 12.0018C2.33621 11.5373 3.08623 10.7786 4.76176 10.131C5.36439 9.89807 6.03202 9.69811 6.74981 9.53341C6.68072 10.3362 6.6451 11.1627 6.6451 12.0018C6.6451 12.8409 6.68072 13.6673 6.74981 14.4702C6.03206 14.3055 5.36439 14.1055 4.76176 13.8726C3.08623 13.225 2.33621 12.4664 2.33621 12.0018ZM11.9999 2.33811C12.4645 2.33811 13.2231 3.08814 13.8708 4.76367C14.1037 5.3663 14.3036 6.03393 14.4683 6.75171C13.6655 6.68263 12.8391 6.64701 12 6.64701C11.1609 6.64701 10.3344 6.68263 9.53159 6.75171C9.6963 6.03397 9.89621 5.3663 10.1291 4.76367C10.7767 3.08814 11.5354 2.33811 11.9999 2.33811ZM20.9413 8.32273C20.6707 8.19308 20.384 8.06922 20.0803 7.95185C19.1417 7.58908 18.0741 7.29675 16.9203 7.08136C16.705 5.92757 16.4126 4.86 16.0499 3.92141C15.9325 3.61774 15.8086 3.33101 15.679 3.06047C16.8446 3.54004 17.915 4.25044 18.8331 5.16856C19.7514 6.08668 20.4617 7.15708 20.9413 8.32273ZM5.16661 5.16856C6.08472 4.25044 7.15517 3.54004 8.32077 3.06047C8.19112 3.33101 8.06726 3.61778 7.9499 3.92141C7.58712 4.86 7.29479 5.92757 7.07941 7.08136C5.92562 7.29675 4.85804 7.58908 3.91945 7.95185C3.61578 8.06922 3.32905 8.19308 3.05851 8.32273C3.53814 7.15708 4.24849 6.08668 5.16661 5.16856ZM3.05856 15.6809C3.3291 15.8106 3.61588 15.9344 3.9195 16.0518C4.85809 16.4146 5.92567 16.7069 7.07945 16.9223C7.29484 18.0761 7.58717 19.1437 7.94995 20.0822C8.06731 20.3859 8.19117 20.6726 8.32082 20.9431C7.15522 20.4636 6.08477 19.7532 5.16665 18.8351C4.24849 17.917 3.53814 16.8466 3.05856 15.6809ZM15.679 20.9432C15.8087 20.6727 15.9325 20.3859 16.0499 20.0823C16.4127 19.1437 16.705 18.0761 16.9204 16.9223C18.0742 16.707 19.1418 16.4146 20.0803 16.0519C20.384 15.9345 20.6707 15.8106 20.9413 15.681C20.4618 16.8466 19.7514 17.917 18.8332 18.8351C17.9151 19.7532 16.8447 20.4636 15.679 20.9432Z" fill="url(#paint4_linear_180_733)"/>
<path d="M0.478279 15.3714C1.0348 17.285 2.06628 19.0387 3.51466 20.4872C5.76623 22.7387 8.75503 23.9848 11.9367 24.0011C11.9581 24.0016 11.9792 24.0018 11.9999 24.0018C12.0206 24.0018 12.0418 24.0016 12.0631 24.0011C15.2448 23.9848 18.2336 22.7387 20.4852 20.4872C21.9336 19.0388 22.9651 17.285 23.5216 15.3714H0.478279ZM5.16661 18.8351C4.24849 17.917 3.53809 16.8466 3.05851 15.681C3.32906 15.8106 3.61583 15.9345 3.91946 16.0518C4.85804 16.4146 5.92562 16.7069 7.07941 16.9223C7.2948 18.0761 7.58713 19.1437 7.9499 20.0822C8.06727 20.3859 8.19113 20.6726 8.32077 20.9432C7.15517 20.4636 6.08477 19.7532 5.16661 18.8351ZM13.8708 19.24C13.2231 20.9155 12.4645 21.6656 11.9999 21.6656C11.5354 21.6656 10.7767 20.9155 10.1291 19.24C9.89616 18.6374 9.69621 17.9698 9.5315 17.252C10.3343 17.321 11.1608 17.3567 11.9999 17.3567C12.839 17.3567 13.6654 17.321 14.4683 17.252C14.3036 17.9697 14.1037 18.6374 13.8708 19.24ZM18.8332 18.8351C17.9151 19.7532 16.8447 20.4636 15.6791 20.9432C15.8087 20.6727 15.9326 20.3859 16.05 20.0823C16.4127 19.1437 16.7051 18.0761 16.9204 16.9224C18.0742 16.707 19.1418 16.4146 20.0804 16.0519C20.3841 15.9345 20.6708 15.8106 20.9413 15.681C20.4617 16.8466 19.7514 17.917 18.8332 18.8351Z" fill="url(#paint5_linear_180_733)"/>
<path d="M20.4852 20.4871C21.5829 19.3893 22.4409 18.116 23.0346 16.7308L15.0371 8.73324C14.9124 8.53767 14.7123 8.38623 14.4519 8.33291L8.1107 7.03414C7.4684 6.90256 6.90068 7.47028 7.03225 8.11259L8.33103 14.4538C8.38435 14.7141 8.53578 14.9143 8.73136 15.0389L16.729 23.0365C18.1141 22.4428 19.3875 21.5848 20.4852 20.4871Z" fill="url(#paint6_linear_180_733)"/>
<path d="M16.3241 13.6412L13.6393 16.326L19.0371 21.7238C19.5467 21.3535 20.0312 20.9412 20.4852 20.4871C20.9392 20.0331 21.3515 19.5486 21.7219 19.039L16.3241 13.6412Z" fill="url(#paint7_linear_180_733)"/>
<path d="M16.7762 14.0933L13.6888 11.0059L14.8676 9.82714C15.3823 9.31246 15.1179 8.43199 14.4049 8.28592L8.06373 6.98714C7.42143 6.85556 6.85371 7.42328 6.98529 8.06559L8.28406 14.4068C8.43013 15.1198 9.31061 15.3842 9.82524 14.8695L11.0041 13.6907L14.0914 16.7781C14.4349 17.1216 14.9919 17.1216 15.3354 16.7781L16.7762 15.3372C17.1196 14.9937 17.1196 14.4367 16.7762 14.0933Z" fill="url(#paint8_linear_180_733)"/>
<path d="M16.7762 14.0933L13.6888 11.0059L11.004 13.6907L14.0914 16.7781C14.4349 17.1216 14.9918 17.1216 15.3353 16.7781L16.7762 15.3372C17.1196 14.9937 17.1196 14.4367 16.7762 14.0933Z" fill="url(#paint9_linear_180_733)"/>
<path d="M8.53616 11.2228L11.0042 13.6908L9.82534 14.8696C9.31052 15.384 8.43004 15.12 8.28416 14.4065L7.72172 11.6611C7.68915 11.5022 7.73861 11.3375 7.85334 11.2228C8.0419 11.0342 8.3476 11.0342 8.53616 11.2228Z" fill="url(#paint10_linear_180_733)"/>
<path d="M14.8677 9.82727L13.6889 11.0061L11.2209 8.53809C11.0323 8.34953 11.0323 8.04378 11.2209 7.85522C11.3356 7.74049 11.5003 7.69108 11.6592 7.72364L14.4046 8.28609C15.118 8.43197 15.382 9.31244 14.8677 9.82727Z" fill="url(#paint11_linear_180_733)"/>
<defs>
<linearGradient id="paint0_linear_180_733" x1="-1.90215" y1="-1.90021" x2="18.3764" y2="18.3784" gradientUnits="userSpaceOnUse">
<stop stop-color="#76CCF8"/>
<stop offset="0.833" stop-color="#518EF8"/>
<stop offset="1" stop-color="#4981F8"/>
</linearGradient>
<linearGradient id="paint1_linear_180_733" x1="10.7678" y1="10.7698" x2="19.5761" y2="19.578" gradientUnits="userSpaceOnUse">
<stop stop-color="#4071F7" stop-opacity="0"/>
<stop offset="1" stop-color="#30569F"/>
</linearGradient>
<linearGradient id="paint2_linear_180_733" x1="11.9999" y1="7.01362" x2="11.9999" y2="1.03047" gradientUnits="userSpaceOnUse">
<stop stop-color="#4071F7" stop-opacity="0"/>
<stop offset="1" stop-color="#30569F"/>
</linearGradient>
<linearGradient id="paint3_linear_180_733" x1="11.9999" y1="12.143" x2="11.9999" y2="8.56097" gradientUnits="userSpaceOnUse">
<stop stop-color="#4071F7" stop-opacity="0"/>
<stop offset="0.1605" stop-color="#3D6BE4" stop-opacity="0.161"/>
<stop offset="0.5236" stop-color="#3660BF" stop-opacity="0.524"/>
<stop offset="0.8163" stop-color="#3259A7" stop-opacity="0.816"/>
<stop offset="1" stop-color="#30569F"/>
</linearGradient>
<linearGradient id="paint4_linear_180_733" x1="3.51465" y1="3.51656" x2="20.4852" y2="20.4871" gradientUnits="userSpaceOnUse">
<stop stop-color="#76CCF8"/>
<stop offset="0.833" stop-color="#518EF8"/>
<stop offset="1" stop-color="#4981F8"/>
</linearGradient>
<linearGradient id="paint5_linear_180_733" x1="11.9999" y1="18.0536" x2="11.9999" y2="23.7008" gradientUnits="userSpaceOnUse">
<stop stop-color="#4071F7" stop-opacity="0"/>
<stop offset="1" stop-color="#30569F"/>
</linearGradient>
<linearGradient id="paint6_linear_180_733" x1="16.596" y1="16.5979" x2="10.7539" y2="10.7558" gradientUnits="userSpaceOnUse">
<stop stop-color="#4071F7" stop-opacity="0"/>
<stop offset="0.1605" stop-color="#3D6BE4" stop-opacity="0.161"/>
<stop offset="0.5236" stop-color="#3660BF" stop-opacity="0.524"/>
<stop offset="0.8163" stop-color="#3259A7" stop-opacity="0.816"/>
<stop offset="1" stop-color="#30569F"/>
</linearGradient>
<linearGradient id="paint7_linear_180_733" x1="17.6156" y1="17.6175" x2="14.3035" y2="14.3054" gradientUnits="userSpaceOnUse">
<stop stop-color="#4071F7" stop-opacity="0"/>
<stop offset="0.1605" stop-color="#3D6BE4" stop-opacity="0.161"/>
<stop offset="0.5236" stop-color="#3660BF" stop-opacity="0.524"/>
<stop offset="0.8163" stop-color="#3259A7" stop-opacity="0.816"/>
<stop offset="1" stop-color="#30569F"/>
</linearGradient>
<linearGradient id="paint8_linear_180_733" x1="9.7842" y1="9.78611" x2="14.7249" y2="14.7268" gradientUnits="userSpaceOnUse">
<stop stop-color="#EEF4FF"/>
<stop offset="1" stop-color="#CFE7FD"/>
</linearGradient>
<linearGradient id="paint9_linear_180_733" x1="14.9921" y1="14.994" x2="16.1113" y2="16.1132" gradientUnits="userSpaceOnUse">
<stop stop-color="#8AAADC" stop-opacity="0"/>
<stop offset="1" stop-color="#8AAADC"/>
</linearGradient>
<linearGradient id="paint10_linear_180_733" x1="9.28562" y1="13.7982" x2="10.1333" y2="14.6458" gradientUnits="userSpaceOnUse">
<stop stop-color="#8AAADC" stop-opacity="0"/>
<stop offset="1" stop-color="#8AAADC"/>
</linearGradient>
<linearGradient id="paint11_linear_180_733" x1="13.7963" y1="9.28755" x2="14.6439" y2="10.1352" gradientUnits="userSpaceOnUse">
<stop stop-color="#8AAADC" stop-opacity="0"/>
<stop offset="1" stop-color="#8AAADC"/>
</linearGradient>
</defs>
</svg>
