<svg width="24" height="24" viewBox="0 0 24 24" fill="none" xmlns="http://www.w3.org/2000/svg">
<path d="M2.89768 4.1805C8.47615 -2.31146 18.8201 -1.03047 22.6856 6.55349C19.9631 6.55499 15.7016 6.55199 13.3931 6.55349C11.7191 6.55349 10.6376 6.51599 9.46764 7.13249C8.09215 7.85698 7.05266 9.19947 6.69116 10.7775L2.89768 4.1805Z" fill="#F44336"/>
<path d="M8.00815 12C8.00815 14.2004 9.79764 15.9899 11.9966 15.9899C14.1956 15.9899 15.9851 14.2004 15.9851 12C15.9851 9.79947 14.1956 8.00998 11.9966 8.00998C9.79614 8.00848 8.00815 9.79947 8.00815 12Z" fill="#2196F3"/>
<path d="M13.5431 17.2229C11.3051 17.8874 8.68465 17.1509 7.25066 14.6729C6.15566 12.783 3.26068 7.74148 1.94669 5.448C-2.66129 12.51 1.30919 22.1324 9.67314 23.7749L13.5431 17.2229Z" fill="#4CAF50"/>
<path d="M15.7001 8.00848C17.5646 9.74247 17.9711 12.5505 16.7081 14.7269C15.7571 16.3679 12.7196 21.4934 11.2481 23.9744C19.8656 24.5054 26.1475 16.0604 23.3096 8.00698L15.7001 8.00848Z" fill="#FFC107"/>
</svg>
