<svg width="24" height="24" viewBox="0 0 24 24" fill="none" xmlns="http://www.w3.org/2000/svg">
<path d="M14.7387 23.693C17.8617 22.9706 20.5177 21.029 22.1788 18.3967C22.3815 18.0755 22.0241 17.6914 21.6894 17.871C20.4123 18.556 18.8967 18.953 17.2708 18.953C12.7646 18.953 9.10281 15.9048 9.0273 12.1206C9.0018 10.8418 9.76497 9.71128 10.8724 9.23868L10.8717 9.23816C10.217 9.46734 9.48077 9.56207 8.91137 9.95681C6.75179 11.4538 5.44083 14.2238 5.64966 16.7139C5.85235 19.1304 7.32999 21.962 9.88591 23.2271C11.2226 23.8886 12.9468 23.7809 14.7387 23.693Z" fill="url(#paint0_linear_155_336)"/>
<path d="M14.6301 15.6302C15.4397 15.9256 16.3326 16.0893 17.2708 16.0893C20.9475 16.0893 23.9281 13.5763 23.9281 10.4763C23.9281 4.33053 18.196 0.0568288 12.1354 0.00184427C5.52755 -0.0582028 0.0848358 5.28172 0.0246482 11.8895C0.0246482 11.8895 1.67784 6.78388 7.58326 6.78388C11.5792 6.78388 14.373 9.15581 14.8319 10.9488C14.9547 11.2763 15.0222 11.6309 15.0222 12.0013C15.0222 12.778 14.7268 13.4858 14.2422 14.0183C13.7622 14.5459 13.96 15.3856 14.6301 15.6302Z" fill="url(#paint1_linear_155_336)"/>
<path d="M14.8319 10.9488C14.373 9.15581 12.8448 5.70055 7.88064 5.70055C0.247493 5.70055 0.0246482 11.8895 0.0246482 11.8895C-0.0361488 18.5682 5.35951 24.0013 12.0242 24.0013C12.9578 24.0013 13.8664 23.8947 14.7387 23.693C5.05829 24.1683 4.06402 11.6211 10.8717 9.23816L10.8725 9.23868C11.2168 9.09177 11.5939 9.00773 11.9915 9.00346C13.291 8.98963 14.402 9.80273 14.8319 10.9488Z" fill="url(#paint2_linear_155_336)"/>
<defs>
<linearGradient id="paint0_linear_155_336" x1="0.0242111" y1="12.0013" x2="23.9282" y2="12.0013" gradientUnits="userSpaceOnUse">
<stop stop-color="#00376F"/>
<stop offset="1" stop-color="#004E99"/>
</linearGradient>
<linearGradient id="paint1_linear_155_336" x1="4.93154" y1="6.31451" x2="21.1418" y2="12.7426" gradientUnits="userSpaceOnUse">
<stop stop-color="#00C2DD"/>
<stop offset="1" stop-color="#00D34F"/>
</linearGradient>
<linearGradient id="paint2_linear_155_336" x1="6.2334" y1="6.64611" x2="9.97657" y2="23.8206" gradientUnits="userSpaceOnUse">
<stop offset="0.0016" stop-color="#006393"/>
<stop offset="0.4" stop-color="#0086DE"/>
<stop offset="1" stop-color="#006393"/>
</linearGradient>
</defs>
</svg>
