<svg width="24" height="24" viewBox="0 0 24 24" fill="none" xmlns="http://www.w3.org/2000/svg">
<path d="M22.6481 8.04794C22.1427 6.83226 21.1191 5.51984 20.3153 5.10505C20.9694 6.38752 21.3481 7.67402 21.4928 8.63414C21.4928 8.63602 21.4935 8.6407 21.495 8.6535C20.1801 5.37617 17.9506 4.05465 16.13 1.1772C16.038 1.03171 15.9458 0.885835 15.856 0.732041C15.8103 0.653527 15.7676 0.573279 15.728 0.491484C15.6524 0.345425 15.594 0.191069 15.5542 0.0315105C15.5547 0.0158546 15.5433 0.00235488 15.5277 0.000339298C15.5206 -0.00172315 15.513 -0.00172315 15.5059 0.000339298C15.5042 0.000901785 15.5018 0.00282362 15.5001 0.00347985C15.4975 0.00451108 15.48 0.0149171 15.4807 0.0139796C12.5597 1.72474 11.5844 4.87715 11.4933 6.4605C10.3268 6.5407 9.21155 6.97045 8.29291 7.69376C8.19673 7.61252 8.09618 7.53659 7.9917 7.46632C7.72668 6.53906 7.71538 5.55762 7.95908 4.6245C6.76454 5.16842 5.83541 6.02819 5.15995 6.78736H5.15456C4.6936 6.20349 4.72609 4.27744 4.75238 3.87531C4.74685 3.85038 4.40852 4.05095 4.36417 4.08118C3.9574 4.37152 3.57711 4.69729 3.22776 5.05471C2.83023 5.45782 2.467 5.89342 2.14188 6.35691C2.14188 6.35747 2.14155 6.35818 2.14137 6.35874C2.14137 6.35813 2.14169 6.35747 2.14188 6.35691C1.39415 7.41654 0.863817 8.61385 0.581589 9.87968C0.576011 9.90489 0.571324 9.931 0.565933 9.95641C0.544043 10.0588 0.465295 10.5709 0.451514 10.6822C0.450436 10.6908 0.449967 10.699 0.448936 10.7076C0.347079 11.2371 0.284033 11.7732 0.260221 12.3119C0.260221 12.3317 0.259003 12.3514 0.259003 12.3713C0.259284 18.7928 5.46562 23.9983 11.8876 23.9983C17.6391 23.9983 22.4145 19.8231 23.3494 14.339C23.3691 14.1902 23.3849 14.0405 23.4023 13.8904C23.6334 11.8964 23.3766 9.80055 22.6481 8.04794ZM9.24534 17.1491C9.29972 17.175 9.35081 17.2034 9.40668 17.2284C9.40903 17.23 9.41222 17.2318 9.41456 17.2332C9.3577 17.2061 9.30131 17.178 9.24534 17.1491ZM21.4959 8.65636L21.4944 8.64506C21.495 8.64919 21.4957 8.6535 21.4963 8.65758L21.4959 8.65636Z" fill="url(#paint0_linear_155_306)"/>
<path d="M22.6481 8.04794C22.1427 6.83226 21.1191 5.51984 20.3153 5.10505C20.9694 6.38752 21.3481 7.67402 21.4928 8.63414C21.4928 8.63133 21.4933 8.63649 21.4945 8.64506C21.495 8.64919 21.4958 8.6535 21.4964 8.65758C22.5935 11.6319 21.9958 14.6564 21.1345 16.5046C19.802 19.3642 16.5759 22.295 11.5262 22.152C6.07043 21.9976 1.26402 17.9494 0.366805 12.6474C0.203309 11.8113 0.366805 11.3868 0.449069 10.7079C0.348853 11.2312 0.310697 11.3824 0.260355 12.3122C0.260355 12.3321 0.259136 12.3517 0.259136 12.3716C0.259277 18.7928 5.46562 23.9983 11.8876 23.9983C17.6391 23.9983 22.4145 19.8231 23.3494 14.339C23.3691 14.1902 23.3849 14.0405 23.4023 13.8904C23.6334 11.8964 23.3766 9.80055 22.6481 8.04794Z" fill="url(#paint1_radial_155_306)"/>
<path d="M22.6481 8.04794C22.1427 6.83226 21.1191 5.51984 20.3153 5.10505C20.9694 6.38752 21.3481 7.67402 21.4928 8.63414C21.4928 8.63133 21.4933 8.63649 21.4945 8.64506C21.495 8.64919 21.4958 8.6535 21.4964 8.65758C22.5935 11.6319 21.9958 14.6564 21.1345 16.5046C19.802 19.3642 16.5759 22.295 11.5262 22.152C6.07043 21.9976 1.26402 17.9494 0.366805 12.6474C0.203309 11.8113 0.366805 11.3868 0.449069 10.7079C0.348853 11.2312 0.310697 11.3824 0.260355 12.3122C0.260355 12.3321 0.259136 12.3517 0.259136 12.3716C0.259277 18.7928 5.46562 23.9983 11.8876 23.9983C17.6391 23.9983 22.4145 19.8231 23.3494 14.339C23.3691 14.1902 23.3849 14.0405 23.4023 13.8904C23.6334 11.8964 23.3766 9.80055 22.6481 8.04794Z" fill="url(#paint2_radial_155_306)"/>
<path d="M16.9971 9.41469C17.0224 9.4325 17.0454 9.45022 17.0693 9.46789C16.7775 8.94993 16.414 8.47576 15.9898 8.05928C12.3752 4.44507 15.4829 0.0134642 15.4837 0.0125267C12.5627 1.72328 11.5846 4.87701 11.4935 6.46032C11.629 6.45094 11.7641 6.43955 11.902 6.43955C14.0818 6.4396 15.9804 7.63812 16.9971 9.41469Z" fill="url(#paint3_radial_155_306)"/>
<path d="M11.9093 10.1364C11.8902 10.4256 10.8683 11.4231 10.5109 11.4231C7.20426 11.4231 6.66751 13.4232 6.66751 13.4232C6.81399 15.1075 7.98654 16.4945 9.40668 17.2284C9.47146 17.2619 9.53703 17.2921 9.60266 17.322C9.71515 17.3718 9.82906 17.4184 9.94423 17.4616C10.4312 17.634 10.9412 17.7324 11.4573 17.7535C17.253 18.0253 18.3759 10.8248 14.1933 8.73389C15.2644 8.54761 16.3762 8.97838 16.9971 9.41455C15.9804 7.63812 14.0818 6.43955 11.9021 6.43955C11.7642 6.43955 11.6291 6.45094 11.4936 6.46032C10.3271 6.54052 9.21187 6.97026 8.29323 7.69357C8.47051 7.84357 8.67066 8.04409 9.09229 8.45944C9.88109 9.23685 11.905 10.0419 11.9093 10.1364Z" fill="url(#paint4_radial_155_306)"/>
<path d="M11.9093 10.1364C11.8902 10.4256 10.8683 11.4231 10.5109 11.4231C7.20426 11.4231 6.66751 13.4232 6.66751 13.4232C6.81399 15.1075 7.98654 16.4945 9.40668 17.2284C9.47146 17.2619 9.53703 17.2921 9.60266 17.322C9.71515 17.3718 9.82906 17.4184 9.94423 17.4616C10.4312 17.634 10.9412 17.7324 11.4573 17.7535C17.253 18.0253 18.3759 10.8248 14.1933 8.73389C15.2644 8.54761 16.3762 8.97838 16.9971 9.41455C15.9804 7.63812 14.0818 6.43955 11.9021 6.43955C11.7642 6.43955 11.6291 6.45094 11.4936 6.46032C10.3271 6.54052 9.21187 6.97026 8.29323 7.69357C8.47051 7.84357 8.67066 8.04409 9.09229 8.45944C9.88109 9.23685 11.905 10.0419 11.9093 10.1364Z" fill="url(#paint5_radial_155_306)"/>
<path d="M7.75081 7.30681C7.83181 7.35908 7.91215 7.41228 7.99183 7.46647C7.72681 6.53921 7.71551 5.55776 7.95921 4.62464C6.76467 5.16856 5.83554 6.02833 5.16009 6.7875C5.21596 6.78595 6.90267 6.75558 7.75081 7.30681Z" fill="url(#paint6_radial_155_306)"/>
<path d="M0.366805 12.6474C1.26402 17.9494 6.07043 21.9976 11.5262 22.152C16.5759 22.2949 19.802 19.3641 21.1345 16.5046C21.9958 14.6563 22.5936 11.6322 21.4964 8.65763L21.496 8.65636L21.4945 8.64511C21.4933 8.63649 21.4926 8.63138 21.4927 8.63419C21.4927 8.63606 21.4935 8.64075 21.495 8.65355C21.9075 11.3468 20.5375 13.9559 18.3959 15.7201L18.3895 15.7352C14.2164 19.133 10.2231 17.7852 9.4146 17.2335C9.35779 17.2062 9.3013 17.1781 9.24524 17.1492C6.8123 15.9866 5.80723 13.77 6.02271 11.8691C3.96836 11.8691 3.26788 10.1365 3.26788 10.1365C3.26788 10.1365 5.11232 8.8214 7.5432 9.96517C9.79461 11.0245 11.909 10.1366 11.9092 10.1365C11.9049 10.042 9.88104 9.23699 9.09206 8.45963C8.67047 8.04428 8.47028 7.84403 8.293 7.69376C8.19681 7.61252 8.09627 7.53659 7.99179 7.46632C7.91201 7.41223 7.83167 7.35903 7.75076 7.30667C6.90267 6.75544 5.21591 6.78581 5.16004 6.78726H5.15465C4.69369 6.2034 4.72617 4.27735 4.75247 3.87517C4.74694 3.85024 4.4086 4.05081 4.36426 4.08104C3.95749 4.37138 3.5772 4.6972 3.22785 5.05457C2.83031 5.45778 2.46709 5.89347 2.14197 6.35705C2.14197 6.35762 2.14164 6.35832 2.14145 6.35888C2.14145 6.35827 2.14178 6.35762 2.14197 6.35705C1.39423 7.41669 0.863903 8.61399 0.581675 9.87982C0.576097 9.90494 0.163091 11.7108 0.366805 12.6474Z" fill="url(#paint7_radial_155_306)"/>
<path d="M15.9898 8.05928C16.4141 8.47576 16.7775 8.94993 17.0693 9.46789C17.1334 9.51598 17.1932 9.56393 17.2439 9.61071C19.8801 12.0397 18.4989 15.4751 18.3958 15.7199C20.5375 13.9558 21.9074 11.3466 21.495 8.65341C20.1801 5.37612 17.9505 4.05461 16.1299 1.17716C16.038 1.03166 15.9458 0.885788 15.856 0.731995C15.8103 0.653481 15.7675 0.573233 15.728 0.491438C15.6523 0.345378 15.594 0.191023 15.5541 0.0314638C15.5547 0.0158079 15.5432 0.00230823 15.5277 0.000292649C15.5205 -0.0017698 15.5164 -0.00256666 15.5092 -0.000504208C15.5076 5.82794e-05 15.5017 0.00277697 15.5 0.0034332C15.4974 0.00446443 15.4942 0.006855 15.4915 0.00826122C15.0487 0.236162 12.3752 4.44507 15.9898 8.05928Z" fill="url(#paint8_radial_155_306)"/>
<path d="M17.2439 9.61071C17.1931 9.56393 17.1333 9.51598 17.0693 9.46789C17.0457 9.45008 17.0224 9.43236 16.9971 9.41469C16.3762 8.97853 15.2644 8.54775 14.1933 8.73403C18.3759 10.825 17.253 18.0254 11.4573 17.7536C10.9412 17.7326 10.4312 17.6342 9.94423 17.4618C9.82906 17.4185 9.7152 17.3719 9.60266 17.3221C9.53703 17.2922 9.4715 17.262 9.40668 17.2285C9.40902 17.2301 9.41221 17.2319 9.41455 17.2334C10.2231 17.785 14.2164 19.1328 18.3894 15.735L18.3958 15.7199C18.4989 15.4753 19.88 12.0398 17.2439 9.61071Z" fill="url(#paint9_radial_155_306)"/>
<path d="M6.66746 13.4232C6.66746 13.4232 7.20421 11.4231 10.5109 11.4231C10.8683 11.4231 11.8904 10.4256 11.9093 10.1364C11.9282 9.8471 9.79475 11.0243 7.5432 9.96503C5.11232 8.82126 3.26788 10.1364 3.26788 10.1364C3.26788 10.1364 3.96836 11.869 6.02271 11.869C5.80723 13.7699 6.8123 15.9866 9.24524 17.1491C9.29962 17.175 9.35071 17.2034 9.40654 17.2284C7.98654 16.4945 6.81394 15.1075 6.66746 13.4232Z" fill="url(#paint10_radial_155_306)"/>
<path d="M22.6481 8.04794C22.1427 6.83226 21.1191 5.51984 20.3153 5.10505C20.9694 6.38752 21.3481 7.67402 21.4928 8.63414C21.4928 8.63602 21.4935 8.6407 21.495 8.6535C20.1801 5.37617 17.9506 4.05465 16.13 1.1772C16.038 1.03171 15.9458 0.885835 15.856 0.732041C15.8103 0.653527 15.7676 0.573279 15.728 0.491484C15.6524 0.345425 15.594 0.191069 15.5542 0.0315105C15.5547 0.0158546 15.5433 0.00235488 15.5277 0.000339298C15.5206 -0.00172315 15.5164 -0.00252002 15.5092 -0.000457568C15.5076 0.000104919 15.5018 0.00282362 15.5001 0.00347985C15.4975 0.00451108 15.4882 0.00980782 15.4871 0.0104641C12.4832 1.80855 11.5844 4.8772 11.4933 6.4605C11.6287 6.45113 11.7638 6.43974 11.9017 6.43974C14.0817 6.43974 15.9802 7.63826 16.9968 9.41473C16.3759 8.97857 15.2641 8.5478 14.193 8.73408C18.3755 10.825 17.2527 18.0255 11.457 17.7537C10.9409 17.7326 10.4308 17.6342 9.94391 17.4619C9.82874 17.4185 9.71488 17.372 9.60234 17.3222C9.53671 17.2923 9.47118 17.2621 9.40636 17.2286C9.4087 17.2302 9.41189 17.232 9.41423 17.2334C9.35742 17.2061 9.30094 17.178 9.24488 17.1491C9.29925 17.1751 9.35034 17.2035 9.40622 17.2284C7.98608 16.4945 6.81348 15.1075 6.66704 13.4232C6.66704 13.4232 7.2038 11.4231 10.5105 11.4231C10.8679 11.4231 11.8899 10.4257 11.9088 10.1364C11.9045 10.042 9.88063 9.23689 9.09164 8.45954C8.67006 8.04419 8.46986 7.84394 8.29258 7.69366C8.1964 7.61243 8.09585 7.53649 7.99137 7.46623C7.72635 6.53897 7.71505 5.55752 7.95875 4.62441C6.76421 5.16833 5.83508 6.02809 5.15962 6.78726H5.15423C4.69328 6.2034 4.72576 4.27735 4.75206 3.87517C4.74653 3.85024 4.40819 4.05081 4.36385 4.08104C3.95707 4.37138 3.57679 4.69715 3.22743 5.05457C2.83004 5.45778 2.46691 5.89338 2.14188 6.35691C2.14188 6.35747 2.14155 6.35818 2.14137 6.35874C2.14137 6.35813 2.14169 6.35747 2.14188 6.35691C1.39415 7.41654 0.863817 8.61385 0.581589 9.87968C0.576011 9.90489 0.571324 9.931 0.565933 9.95641C0.544043 10.0588 0.445655 10.5783 0.431921 10.6898C0.432952 10.6812 0.430843 10.6983 0.431921 10.6898C0.342157 11.2266 0.284924 11.7684 0.260456 12.3122C0.260456 12.332 0.259237 12.3516 0.259237 12.3715C0.259237 18.7928 5.46557 23.9982 11.8876 23.9982C17.639 23.9982 22.4145 19.8231 23.3494 14.3389C23.3691 14.1901 23.3849 14.0405 23.4022 13.8903C23.6334 11.8964 23.3766 9.80055 22.6481 8.04794ZM21.4945 8.64506C21.495 8.64919 21.4958 8.6535 21.4964 8.65758L21.496 8.65631L21.4945 8.64506Z" fill="url(#paint11_linear_155_306)"/>
<defs>
<linearGradient id="paint0_linear_155_306" x1="20.5168" y1="3.7107" x2="1.84496" y2="21.7283" gradientUnits="userSpaceOnUse">
<stop offset="0.05" stop-color="#FFF339"/>
<stop offset="0.37" stop-color="#FF9800"/>
<stop offset="0.53" stop-color="#FF3346"/>
<stop offset="0.7" stop-color="#FF0D8A"/>
</linearGradient>
<radialGradient id="paint1_radial_155_306" cx="0" cy="0" r="1" gradientUnits="userSpaceOnUse" gradientTransform="translate(20.6321 -0.000134271) scale(23.7831 30.7201)">
<stop offset="0.13" stop-color="#FFBD44"/>
<stop offset="0.28" stop-color="#FF9800"/>
<stop offset="0.47" stop-color="#FF3450"/>
<stop offset="0.78" stop-color="#FF027B"/>
<stop offset="0.86" stop-color="#FF0083"/>
</radialGradient>
<radialGradient id="paint2_radial_155_306" cx="0" cy="0" r="1" gradientUnits="userSpaceOnUse" gradientTransform="translate(11.6386 9.60925) scale(24.3777 30.7201)">
<stop offset="0.3" stop-color="#AF0611"/>
<stop offset="0.35" stop-color="#CE1223" stop-opacity="0.74"/>
<stop offset="0.43" stop-color="#FD243B" stop-opacity="0.34"/>
<stop offset="0.5" stop-color="#FF304B" stop-opacity="0.09"/>
<stop offset="0.53" stop-color="#FF3450" stop-opacity="0"/>
</radialGradient>
<radialGradient id="paint3_radial_155_306" cx="0" cy="0" r="1" gradientUnits="userSpaceOnUse" gradientTransform="translate(11.4063 -2.88046) scale(32.5145 33.6376)">
<stop offset="0.13" stop-color="#FFF339"/>
<stop offset="0.53" stop-color="#FF9800"/>
</radialGradient>
<radialGradient id="paint4_radial_155_306" cx="0" cy="0" r="1" gradientUnits="userSpaceOnUse" gradientTransform="translate(5.5437 26.4306) scale(23.2265 24.0009)">
<stop offset="0.35" stop-color="#008EE9"/>
<stop offset="0.67" stop-color="#A059FF"/>
<stop offset="1" stop-color="#DF36EA"/>
</radialGradient>
<radialGradient id="paint5_radial_155_306" cx="0" cy="0" r="1" gradientUnits="userSpaceOnUse" gradientTransform="translate(11.1284 7.91443) scale(12.3321 14.1592)">
<stop offset="0.21" stop-color="#A059FF" stop-opacity="0"/>
<stop offset="0.97" stop-color="#80008E" stop-opacity="0.6"/>
</radialGradient>
<radialGradient id="paint6_radial_155_306" cx="0" cy="0" r="1" gradientUnits="userSpaceOnUse" gradientTransform="translate(49.034 -24.0046) scale(67.3552 69.6007)">
<stop offset="0.1" stop-color="#FFE200"/>
<stop offset="0.79" stop-color="#FF7232"/>
</radialGradient>
<radialGradient id="paint7_radial_155_306" cx="0" cy="0" r="1" gradientUnits="userSpaceOnUse" gradientTransform="translate(19.7662 -9.84007) scale(41.8067 43.2009)">
<stop offset="0.11" stop-color="#FFF339"/>
<stop offset="0.46" stop-color="#FF9800"/>
<stop offset="0.72" stop-color="#FF3346"/>
<stop offset="0.9" stop-color="#FF0D8A"/>
</radialGradient>
<radialGradient id="paint8_radial_155_306" cx="0" cy="0" r="1" gradientUnits="userSpaceOnUse" gradientTransform="translate(3.89269 -4.54617) rotate(77.7855) scale(40.0349 79.635)">
<stop stop-color="#FFF339"/>
<stop offset="0.3" stop-color="#FF9800"/>
<stop offset="0.57" stop-color="#FF3346"/>
<stop offset="0.74" stop-color="#FF0D8A"/>
</radialGradient>
<radialGradient id="paint9_radial_155_306" cx="0" cy="0" r="1" gradientUnits="userSpaceOnUse" gradientTransform="translate(4.6477 -10.2022) scale(55.3697 57.2158)">
<stop offset="0.14" stop-color="#FFF339"/>
<stop offset="0.48" stop-color="#FF9800"/>
<stop offset="0.66" stop-color="#FF3346"/>
<stop offset="0.9" stop-color="#FF0D8A"/>
</radialGradient>
<radialGradient id="paint10_radial_155_306" cx="0" cy="0" r="1" gradientUnits="userSpaceOnUse" gradientTransform="translate(37.2581 -10.7397) scale(72.7189 75.1441)">
<stop offset="0.09" stop-color="#FFF339"/>
<stop offset="0.63" stop-color="#FF9800"/>
</radialGradient>
<linearGradient id="paint11_linear_155_306" x1="19.3722" y1="3.8483" x2="4.43909" y2="20.1645" gradientUnits="userSpaceOnUse">
<stop offset="0.17" stop-color="#FFF339" stop-opacity="0.8"/>
<stop offset="0.6" stop-color="#FFF339" stop-opacity="0"/>
</linearGradient>
</defs>
</svg>
