<svg width="24" height="24" viewBox="0 0 24 24" fill="none" xmlns="http://www.w3.org/2000/svg">
<path d="M24 12C24 15.5521 22.4478 18.7461 20 20.9551C16.9254 22.4476 14.0597 21.4028 13.1046 20.7461C16.1195 20.0894 18.4179 16.4178 18.4179 12C18.4179 7.58208 16.1195 3.91047 13.1046 3.25376C14.0597 2.59705 16.9254 1.55229 20 3.04481C22.4478 5.25374 24 8.44774 24 12Z" fill="#FF1B2D"/>
<path d="M8.05964 5.22383C6.74621 6.77607 5.88055 9.1044 5.82084 11.7014V12.2685C5.88055 14.8655 6.74621 17.1939 8.05964 18.7461C9.79097 20.9849 12.3282 22.3879 15.1939 22.3879C16.9551 22.3879 18.5968 21.8505 19.9998 20.9252C17.8804 22.8356 15.0745 23.9699 11.9999 23.9699C11.8208 23.9699 11.6118 23.9699 11.4327 23.9699C5.07458 23.7013 0 18.4476 0 11.9999C0 5.37308 5.37308 0 11.9999 0C12.0297 0 12.0297 0 12.0596 0C15.1043 0 17.8806 1.16423 20 3.04481C18.597 2.11945 16.9551 1.58208 15.1939 1.58208C12.3282 1.58208 9.76111 3.0149 8.05964 5.22383Z" fill="#FF1B2D"/>
</svg>
