<svg width="163" height="41" viewBox="0 0 163 41" fill="none" xmlns="http://www.w3.org/2000/svg">
<path d="M90.7326 34.9573C80.3565 31.3699 88.3229 33.3739 78.5702 35.1898C76.9225 35.749 77.6895 33.176 76.7196 33.5867C74.6513 34.8435 72.0239 36.8969 69.5053 36.0459C68.397 36.2042 67.6844 34.5862 67.1006 34.8385C63.7854 38.0993 58.9263 38.2774 55.0668 37.8964C30.2324 45.7243 54.8194 19.064 60.4602 12.78C60.6829 11.5133 64.3989 6.79281 65.25 8.59886C61.8309 18.4406 47.4814 25.9023 47.4468 36.6297C49.139 38.1438 51.5982 37.2977 53.3251 36.4565C55.4478 35.4224 57.9763 28.9157 58.4266 28.3269C59.5696 26.1794 61.7467 24.9523 64.1812 25.8182C65.7349 27.8024 64.1614 31.9637 61.7814 33.1611C58.5453 34.0072 56.195 37.8915 61.3559 35.9419C64.968 35.3185 67.6152 32.4585 69.6389 29.5589C72.8651 28.5396 70.2426 32.602 69.5697 33.8093C72.0833 36.1547 77.4569 30.8801 79.352 29.0443C82.5336 28.9602 80.1783 31.5728 79.6934 32.9286C81.8063 33.2205 83.6123 32.0478 84.2506 29.9498C86.8533 25.1205 98.4219 33.4877 90.7277 34.9424L90.7326 34.9573ZM61.1777 28.3318C60.6087 28.1933 60.3959 28.7821 61.0986 28.7276C62.1871 29.2571 57.5953 32.7504 59.342 32.7851C60.7126 32.1121 61.4647 31.3551 62.3108 30.4298C63.152 28.5693 63.6518 27.5104 61.1777 28.3318ZM85.9231 31.0038C88.8375 35.2937 94.0874 31.6718 88.8622 31.6569C87.9419 31.8251 85.9478 29.6282 85.9231 31.0038Z" fill="#0C0C0C"/>
<path d="M19.4308 10.3307C22.5382 10.2565 33.4388 -3.19737 33.2161 1.58248C32.9489 1.88926 33.0677 2.27521 33.4536 2.27521C35.8782 2.33459 33.4685 5.37271 32.8203 6.10502C29.4605 8.8809 24.0721 10.207 21.7316 13.1165C21.3209 13.5074 22.3848 14.3337 21.2022 14.2595C20.361 14.8582 19.3714 15.541 18.4164 16.6494C13.3743 22.0378 8.49551 27.362 4.06203 33.4283C0.444982 43.4482 23.1121 34.2398 27.13 32.1468C28.0701 31.3848 29.4754 33.2254 28.5501 33.8489C27.0063 34.4377 25.9672 35.4076 24.3887 35.5758C18.6391 37.7678 2.73594 44.5813 0.237163 35.9469C-0.505049 30.4793 26.7836 8.37619 13.1516 14.5811C9.56429 13.4183 19.4308 10.3307 19.4308 10.3307ZM32.6966 3.81406C32.0335 1.89421 27.7435 6.87198 26.7787 7.79232C27.605 9.16789 32.2958 5.74876 32.6966 3.81406Z" fill="#0C0C0C"/>
<path d="M131.327 36.2636C125.32 39.5194 120.119 32.3793 126.027 27.0849C127.225 24.6158 129.738 22.0428 129.451 19.0096C129.991 17.3174 127.2 15.2441 126.453 17.1491C126.492 17.6093 125.755 17.07 125.74 17.4658C120.807 22.5079 121.584 30.7019 122.361 37.5253C121.782 43.9578 118.427 38.228 119.54 34.6703C120.565 31.5085 117.665 17.4658 121.193 18.2872C121.98 18.4307 121.683 20.2516 122.192 19.6727C123.266 15.8973 129.333 11.637 131.262 17.1442C135.557 26.4862 117.017 31.9587 131.332 36.2586L131.327 36.2636Z" fill="#0C0C0C"/>
<path d="M158.878 34.4129C158.878 34.4129 161.362 33.354 162.064 33.3689C165.097 35.6648 145.33 40.5832 148.897 31.647C149.917 28.9206 153.87 19.2223 156.463 20.9937C157.863 22.7454 153.831 24.6157 153.212 26.3624C149.798 33.7944 150.995 36.595 158.883 34.4129H158.878Z" fill="#0C0C0C"/>
<path d="M145.953 27.6539C158.026 26.0755 129.471 38.515 145.78 13.2303C153.133 8.4999 136.275 29.2967 145.953 27.6539Z" fill="#0C0C0C"/>
<path d="M100.461 29.643C91.5292 30.3803 102.573 31.2066 104.696 34.5119C104.647 37.1443 94.4635 37.1542 94.4882 34.5069C95.8291 34.022 100.456 35.6005 100.668 33.7944C98.3081 32.3149 94.9385 32.7454 93.5481 30.0388C92.3605 27.3421 106.289 28.6039 100.456 29.6479L100.461 29.643Z" fill="#0C0C0C"/>
<path d="M134.573 38.8464C130.609 39.5787 132.094 32.8691 134.696 34.7939C135.661 35.4619 134.444 35.7786 134.305 36.5753C136.997 38.5248 140.04 31.9191 139.887 29.5836C142.999 31.0037 138.491 39.1087 134.573 38.8415V38.8464Z" fill="#0C0C0C"/>
<path d="M28.4017 36.3527C31.0044 36.7881 27.1202 36.9613 27.5061 37.5006C27.9663 38.1835 29.2429 38.0202 28.5601 38.9702C30.094 39.8064 29.8763 36.516 31.0589 37.4017C32.0237 39.6135 27.5804 40.7119 26.1553 39.564C24.9925 39.4551 25.5764 38.99 25.6556 38.2676C25.042 36.8623 27.4616 36.4764 28.4067 36.3477L28.4017 36.3527Z" fill="#0C0C0C"/>
<path d="M136.928 31.2858C136.557 31.1027 135.414 31.5728 135.869 30.8504C135.582 30.2863 135.067 29.7024 135.478 28.9998C135.904 26.877 139.437 28.0745 137.957 29.8063C137.932 29.8805 137.739 29.935 137.809 30.024C138.308 30.7365 137.22 31.0681 136.923 31.2858H136.928Z" fill="#0C0C0C"/>
</svg>
