<?xml version="1.0" encoding="UTF-8"?><svg id="b" xmlns="http://www.w3.org/2000/svg" xmlns:xlink="http://www.w3.org/1999/xlink" viewBox="0 0 325.62 377.99"><defs><linearGradient id="d" x1="67.79" y1="762.3" x2="152.02" y2="596.48" gradientTransform="translate(0 916.43) scale(1 -1)" gradientUnits="userSpaceOnUse"><stop offset="0" stop-color="#fff" stop-opacity="0"/><stop offset="1" stop-color="#000"/></linearGradient></defs><g id="c"><g><rect x="0" y="62.85" width="315.14" height="315.14" rx="37.01" ry="37.01"/><path d="M173.33,317.03h-52.25c-17.5-54.12-44.46-110.37-82.57-160.71h49.74c3.6,0,6.9,2.03,8.5,5.26,24.87,33.04,51.71,89.18,76.58,155.45Z" style="fill:#05faa0;"/><path d="M173.33,317.03h-52.25c-17.5-54.12-44.46-110.37-82.57-160.71h49.74c3.6,0,6.9,2.03,8.5,5.26,24.87,33.04,51.71,89.18,76.58,155.45Z" style="fill:url(#d); isolation:isolate; opacity:.7;"/><path d="M121.08,317.03h52.25C213.99,206.56,262.34,101.28,325.62,0h-49.74c-3.67-.02-7.02,2.09-8.6,5.4-48.91,79.63-99.48,179.73-146.21,311.63Z" style="fill:#2cce88;"/></g></g></svg>