<?xml version="1.0" encoding="utf-8"?>
<!-- Generator: $$$/GeneralStr/196=Adobe Illustrator 27.6.0, SVG Export Plug-In . SVG Version: 6.00 Build 0)  -->
<svg version="1.1" id="uuid-e245caf8-5779-4755-a234-64ba52b908a8"
	 xmlns="http://www.w3.org/2000/svg" xmlns:xlink="http://www.w3.org/1999/xlink" x="0px" y="0px" viewBox="0 0 618.2 170.3"
	 style="enable-background:new 0 0 618.2 170.3;" xml:space="preserve">
<style type="text/css">
	.st0{fill:#05FAA0;}
	.st1{opacity:0.7;fill:url(#SVGID_1_);enable-background:new    ;}
	.st2{fill:#FFFFFF;}
	.st3{fill:#2CCE88;}
	.st4{opacity:0.7;fill:url(#SVGID_00000075135207743231232910000011626322546874734774_);enable-background:new    ;}
</style>
<g id="uuid-9c7b3b3f-2b9a-4821-ab0c-d027259b8a5b">
	<rect y="33.2" width="618.2" height="137.1"/>
	<path class="st0" d="M85.3,133.9H63.3C55.9,111,44.5,87.3,28.4,66h21c1.5,0,2.9,0.9,3.6,2.2C63.5,82.2,74.8,105.9,85.3,133.9z"/>
	
		<linearGradient id="SVGID_1_" gradientUnits="userSpaceOnUse" x1="40.7723" y1="893.0688" x2="76.3323" y2="963.0789" gradientTransform="matrix(1 0 0 1 0 -828)">
		<stop  offset="0" style="stop-color:#FFFFFF;stop-opacity:0"/>
		<stop  offset="1" style="stop-color:#000000"/>
	</linearGradient>
	<path class="st1" d="M85.3,133.9H63.3C55.9,111,44.5,87.3,28.4,66h21c1.5,0,2.9,0.9,3.6,2.2C63.5,82.2,74.8,105.9,85.3,133.9z"/>
	<path class="st2" d="M135.2,69.8h7.5c1.1,0,1.9,0.9,1.9,1.9v60.2c0,1.1-0.9,1.9-1.9,1.9h-7.5c-1.1,0-1.9-0.9-1.9-1.9c0,0,0,0,0,0
		V71.7C133.2,70.7,134.1,69.8,135.2,69.8C135.2,69.8,135.2,69.8,135.2,69.8L135.2,69.8z"/>
	<path class="st2" d="M178.8,69.8h38.5c1.1,0,2,0.9,2,1.9v6.1c0,1.1-0.9,1.9-1.9,1.9c0,0,0,0-0.1,0h-27.1c-1.1,0-2,0.9-2,2v12.4
		c0,1.1,0.9,1.9,1.9,1.9c0,0,0,0,0.1,0h25.5c1.1,0,1.9,0.8,1.9,1.9v5.7c0,1.1-0.9,1.9-1.9,1.9c0,0,0,0,0,0h-25.5c-1.1,0-2,0.8-2,1.9
		c0,0,0,0,0,0.1v14.2c0,1.1,0.9,1.9,1.9,1.9c0,0,0,0,0.1,0H219c1.1,0,1.9,0.9,1.9,1.9c0,0,0,0,0,0.1v6.2c0,1.1-0.9,1.9-1.9,1.9
		c0,0,0,0,0,0h-40.2c-1.1,0-1.9-0.9-1.9-1.9c0,0,0,0,0,0V71.7C176.8,70.7,177.7,69.8,178.8,69.8C178.8,69.8,178.8,69.8,178.8,69.8z"
		/>
	<path class="st2" d="M250.1,71.7c0-1.1,0.9-1.9,1.9-1.9h20.3c3,0,5.9,0.3,8.8,0.9c2.7,0.6,5.2,1.6,7.5,3.1c2.2,1.4,4,3.4,5.3,5.7
		c1.4,2.6,2.1,5.6,2,8.6c0,4.7-1.3,8.4-3.9,11.3c-2.3,2.5-5.2,4.3-8.4,5.3c-1,0.4-1.5,1.5-1.2,2.5c0,0.1,0.1,0.2,0.2,0.4l14,23.3
		c0.5,1,0.2,2.2-0.8,2.7c-0.3,0.1-0.5,0.2-0.9,0.2h-9.2c-0.7,0-1.4-0.4-1.7-1l-13.7-25.1c-0.4-0.6-1-1-1.7-1h-5.2c-1.1,0-2,0.9-2,2
		v23.2c0,1.1-0.9,1.9-1.9,1.9c0,0,0,0,0,0h-7.5c-1.1,0-1.9-0.9-1.9-1.9C250.1,131.9,250.1,71.7,250.1,71.7z M270.8,97.4
		c1.6,0,3.3-0.1,4.9-0.4c1.5-0.2,3-0.7,4.4-1.3c1.3-0.7,2.4-1.7,3.2-2.8c0.9-1.4,1.3-3.1,1.3-4.8c0.1-1.5-0.3-3-1.2-4.3
		c-0.8-1.1-1.8-2-3-2.7c-1.3-0.7-2.7-1.1-4.1-1.4c-1.5-0.2-3-0.4-4.5-0.4h-8.4c-1.1,0-2,0.9-2,2v14.1c0,1.1,0.9,2,2,2L270.8,97.4
		L270.8,97.4z"/>
	<path class="st2" d="M327.1,69.8h7.5c1.1,0,1.9,0.9,1.9,1.9c0,0,0,0,0,0v50c0,1.1,0.9,1.9,1.9,1.9c0,0,0,0,0,0h23.3
		c1.1,0,1.9,0.9,1.9,1.9c0,0,0,0,0,0.1v6.2c0,1.1-0.9,1.9-1.9,1.9c0,0,0,0,0,0h-34.7c-1.1,0-1.9-0.9-2-1.9V71.7
		C325.1,70.7,326,69.8,327.1,69.8L327.1,69.8z"/>
	<path class="st2" d="M391.4,69.8h38.5c1.1,0,1.9,0.9,2,1.9v6.1c0,1.1-0.9,1.9-1.9,1.9c0,0,0,0,0,0h-27.1c-1.1,0-1.9,0.9-1.9,2v12.4
		c0,1,0.9,1.9,1.9,1.9h25.5c1.1,0,1.9,0.9,2,1.9c0,0,0,0.1,0,0.1v5.7c0,1.1-0.9,1.9-1.9,1.9c0,0,0,0,0,0h-25.5
		c-1.1,0-1.9,0.9-1.9,1.9l0,0v14.2c0,1.1,0.9,1.9,1.9,1.9h28.8c1.1,0,1.9,0.9,1.9,1.9c0,0,0,0,0,0.1v6.2c0,1.1-0.9,1.9-1.9,1.9
		c0,0,0,0,0,0h-40.2c-1.1,0-1.9-0.9-1.9-1.9c0,0,0,0,0,0V71.7C389.4,70.7,390.3,69.8,391.4,69.8C391.4,69.8,391.4,69.8,391.4,69.8z"
		/>
	<path class="st2" d="M496.8,81.6c-0.7,0.8-1.9,0.9-2.7,0.2l0,0c-1.1-1-2.4-1.9-3.8-2.5c-2.1-1-4.3-1.6-6.6-1.6
		c-1.4,0-2.7,0.2-4,0.5c-1.3,0.3-2.5,0.8-3.6,1.5c-1.1,0.7-2,1.6-2.7,2.7c-0.7,1.2-1,2.6-1,4c0,1.3,0.3,2.6,0.9,3.7
		c0.6,1.1,1.5,1.9,2.5,2.6c1.2,0.8,2.5,1.4,3.8,1.9c1.5,0.6,3.2,1.1,5,1.6c2,0.7,4.2,1.4,6.4,2.3c2.2,0.8,4.2,2,6.1,3.3
		c1.9,1.4,3.4,3.2,4.5,5.2c1.3,2.4,1.9,5.1,1.8,7.9c0.1,3.1-0.6,6.2-1.9,9c-1.2,2.5-2.9,4.6-5.1,6.4c-2.2,1.7-4.7,3-7.4,3.8
		c-2.9,0.9-5.9,1.3-9,1.3c-4.2,0-8.3-0.8-12.2-2.3c-3.1-1.2-6-3-8.4-5.3c-0.8-0.8-0.8-2,0-2.7c0,0,0,0,0.1-0.1l5.2-4.9
		c0.8-0.7,2-0.7,2.8,0.1c1.4,1.5,3.1,2.7,5,3.6c3.6,1.9,7.8,2.4,11.8,1.4c1.4-0.3,2.6-0.9,3.8-1.7c1.1-0.8,2-1.8,2.7-2.9
		c0.7-1.3,1.1-2.9,1-4.4c0-1.5-0.4-3-1.2-4.2c-0.9-1.2-1.9-2.2-3.2-2.9c-1.5-0.9-3.1-1.6-4.7-2.1l-5.7-1.9c-2-0.6-3.9-1.3-5.8-2.2
		c-1.9-0.8-3.7-2-5.2-3.3c-1.6-1.4-2.9-3.2-3.8-5.1c-1-2.4-1.5-4.9-1.4-7.5c-0.1-2.9,0.6-5.8,2-8.4c1.3-2.3,3.1-4.3,5.3-5.8
		c2.3-1.6,4.8-2.7,7.5-3.4c2.8-0.8,5.7-1.1,8.5-1.1c3.4,0,6.7,0.6,9.9,1.7c2.6,0.9,5,2.2,7.1,3.8c0.8,0.7,1,1.9,0.3,2.7
		c0,0-0.1,0.1-0.1,0.1L496.8,81.6L496.8,81.6z"/>
	<path class="st2" d="M566.8,81.6c-0.7,0.8-1.9,0.9-2.7,0.2l0,0c-2.9-2.6-6.6-4-10.5-4.1c-1.3,0-2.7,0.2-4,0.5
		c-1.3,0.3-2.5,0.8-3.6,1.5c-1.1,0.7-2,1.6-2.7,2.7c-0.7,1.2-1,2.6-1,4c0,1.3,0.3,2.6,0.9,3.7c0.6,1.1,1.5,1.9,2.5,2.6
		c1.2,0.8,2.5,1.4,3.8,1.9c1.5,0.6,3.2,1.1,5,1.6c2,0.7,4.2,1.4,6.4,2.3c2.2,0.8,4.2,2,6.1,3.3c1.9,1.4,3.4,3.2,4.5,5.2
		c1.3,2.4,1.9,5.1,1.8,7.9c0.1,3.1-0.6,6.2-1.9,9c-1.2,2.5-2.9,4.6-5.1,6.4c-2.2,1.7-4.7,3-7.4,3.8c-2.9,0.9-6,1.3-9,1.3
		c-4.2,0-8.3-0.8-12.2-2.3c-3.1-1.2-6-3-8.4-5.3c-0.8-0.8-0.8-2,0-2.7c0,0,0-0.1,0.1-0.1l5.2-4.9c0.8-0.7,2-0.7,2.8,0.1
		c1.4,1.5,3.1,2.7,5,3.6c3.6,1.9,7.8,2.4,11.8,1.4c1.3-0.3,2.6-0.9,3.8-1.7c1.1-0.8,2-1.8,2.7-2.9c0.7-1.3,1.1-2.9,1-4.4
		c0.1-1.5-0.3-3-1.2-4.2c-0.8-1.2-1.9-2.2-3.2-2.9c-1.5-0.9-3.1-1.6-4.7-2.1l-5.7-1.9c-2-0.6-3.9-1.3-5.8-2.2
		c-1.9-0.8-3.7-2-5.2-3.3c-1.6-1.4-2.8-3.2-3.8-5.1c-1-2.4-1.5-4.9-1.4-7.5c-0.1-2.9,0.6-5.8,2-8.4c1.3-2.3,3.2-4.3,5.3-5.8
		c2.3-1.6,4.8-2.7,7.5-3.4c2.8-0.8,5.7-1.1,8.5-1.1c3.4,0,6.7,0.6,9.9,1.7c2.6,0.9,5,2.2,7.1,3.8c0.8,0.7,1,1.9,0.3,2.7
		c0,0-0.1,0.1-0.1,0.1L566.8,81.6L566.8,81.6z"/>
	<path class="st3" d="M63.3,133.9h22.1C102.5,87.2,122.9,42.8,149.6,0h-21c-1.6,0-3,0.9-3.6,2.3C104.4,35.9,83,78.2,63.3,133.9z"/>
</g>
<g id="uuid-cd4be334-779a-4379-80bc-72eaaf5ef19d_00000075861989535130268370000008477793986339757233_">
	<g id="uuid-d847fca3-5769-4292-a896-f9cdf4067b86_00000155834900585591436070000006397623523596401316_">
		<g id="uuid-9c7b3b3f-2b9a-4821-ab0c-d027259b8a5b_00000166647347437293023700000012911524427081247368_">
			<rect y="467.2" width="618.2" height="137.1"/>
			<path class="st0" d="M85.3,567.8H63.3C55.9,545,44.5,521.2,28.4,500h21c1.5,0,2.9,0.9,3.6,2.2C63.5,516.2,74.8,539.9,85.3,567.8z
				"/>
			
				<linearGradient id="SVGID_00000177464034421166529810000006616244537674041734_" gradientUnits="userSpaceOnUse" x1="40.7723" y1="1327.0688" x2="76.3323" y2="1397.0789" gradientTransform="matrix(1 0 0 1 0 -828)">
				<stop  offset="0" style="stop-color:#FFFFFF;stop-opacity:0"/>
				<stop  offset="1" style="stop-color:#000000"/>
			</linearGradient>
			<path style="opacity:0.7;fill:url(#SVGID_00000177464034421166529810000006616244537674041734_);enable-background:new    ;" d="
				M85.3,567.8H63.3C55.9,545,44.5,521.2,28.4,500h21c1.5,0,2.9,0.9,3.6,2.2C63.5,516.2,74.8,539.9,85.3,567.8z"/>
			<path class="st2" d="M135.2,503.8h7.5c1.1,0,1.9,0.9,1.9,1.9v60.2c0,1.1-0.9,1.9-1.9,1.9h-7.5c-1.1,0-1.9-0.9-1.9-1.9
				c0,0,0,0,0,0v-60.2C133.2,504.7,134.1,503.8,135.2,503.8C135.2,503.8,135.2,503.8,135.2,503.8L135.2,503.8z"/>
			<path class="st2" d="M178.8,503.8h38.5c1.1,0,2,0.9,2,1.9v6.1c0,1.1-0.9,1.9-1.9,1.9c0,0,0,0-0.1,0h-27.1c-1.1,0-2,0.9-2,2v12.4
				c0,1.1,0.9,1.9,1.9,1.9c0,0,0,0,0.1,0h25.5c1.1,0,1.9,0.8,1.9,1.9v5.7c0,1.1-0.9,1.9-1.9,1.9c0,0,0,0,0,0h-25.5
				c-1.1,0-2,0.8-2,1.9c0,0,0,0,0,0.1v14.2c0,1.1,0.9,1.9,1.9,1.9c0,0,0,0,0.1,0H219c1.1,0,1.9,0.9,1.9,1.9c0,0,0,0,0,0.1v6.2
				c0,1.1-0.9,1.9-1.9,2c0,0,0,0,0,0h-40.2c-1.1,0-1.9-0.9-1.9-1.9c0,0,0,0,0,0v-60.2C176.8,504.7,177.7,503.8,178.8,503.8
				C178.8,503.8,178.8,503.8,178.8,503.8z"/>
			<path class="st2" d="M250.1,505.7c0-1.1,0.9-1.9,1.9-1.9h20.3c3,0,5.9,0.3,8.8,0.9c2.7,0.6,5.2,1.6,7.5,3.1
				c2.2,1.5,4,3.4,5.3,5.7c1.4,2.6,2.1,5.6,2,8.6c0,4.7-1.3,8.5-3.9,11.4c-2.3,2.5-5.2,4.3-8.4,5.3c-1,0.4-1.5,1.5-1.2,2.5
				c0,0.1,0.1,0.2,0.2,0.4l14,23.3c0.5,1,0.2,2.2-0.8,2.7c-0.3,0.1-0.5,0.2-0.9,0.2h-9.2c-0.7,0-1.4-0.4-1.7-1l-13.7-25.1
				c-0.4-0.6-1-1-1.7-1h-5.2c-1.1,0-2,0.9-2,2v23.2c0,1.1-0.9,1.9-1.9,1.9c0,0,0,0,0,0h-7.5c-1.1,0-1.9-0.9-1.9-1.9
				C250.1,565.9,250.1,505.7,250.1,505.7z M270.8,531.4c1.6,0,3.3-0.1,4.9-0.4c1.5-0.2,3-0.7,4.4-1.4c1.3-0.7,2.4-1.6,3.2-2.8
				c0.9-1.4,1.3-3.1,1.3-4.8c0.1-1.5-0.3-3-1.2-4.3c-0.8-1.1-1.8-2-3-2.7c-1.3-0.7-2.7-1.1-4.1-1.4c-1.5-0.2-3-0.4-4.5-0.4h-8.4
				c-1.1,0-2,0.9-2,2v14.1c0,1.1,0.9,2,2,2L270.8,531.4L270.8,531.4z"/>
			<path class="st2" d="M327.1,503.8h7.5c1.1,0,1.9,0.9,1.9,1.9c0,0,0,0,0,0v50c0,1.1,0.9,1.9,1.9,1.9c0,0,0,0,0,0h23.3
				c1.1,0,1.9,0.9,1.9,1.9c0,0,0,0,0,0.1v6.2c0,1.1-0.9,1.9-1.9,1.9c0,0,0,0,0,0h-34.7c-1.1,0-1.9-0.9-2-1.9v-60.2
				C325.1,504.7,326,503.8,327.1,503.8L327.1,503.8z"/>
			<path class="st2" d="M391.4,503.8h38.5c1.1,0,1.9,0.9,2,1.9v6.1c0,1.1-0.9,1.9-1.9,1.9c0,0,0,0,0,0h-27.1c-1.1,0-1.9,0.9-1.9,2
				v12.4c0,1,0.9,1.9,1.9,1.9h25.5c1.1,0,1.9,0.9,2,1.9c0,0,0,0,0,0.1v5.7c0,1.1-0.9,1.9-1.9,1.9c0,0,0,0,0,0h-25.5
				c-1.1,0-1.9,0.9-1.9,1.9l0,0v14.2c0,1.1,0.9,1.9,1.9,1.9h28.8c1.1,0,1.9,0.9,1.9,1.9c0,0,0,0,0,0.1v6.2c0,1.1-0.9,1.9-1.9,2
				c0,0,0,0,0,0h-40.2c-1.1,0-1.9-0.9-1.9-1.9c0,0,0,0,0,0v-60.2C389.4,504.7,390.3,503.8,391.4,503.8
				C391.4,503.8,391.4,503.8,391.4,503.8z"/>
			<path class="st2" d="M496.8,515.6c-0.7,0.8-1.9,0.9-2.7,0.2l0,0c-1.1-1-2.4-1.9-3.8-2.5c-2.1-1-4.3-1.6-6.6-1.6
				c-1.4,0-2.7,0.2-4,0.5c-1.3,0.3-2.5,0.8-3.6,1.5c-1.1,0.7-2,1.6-2.7,2.7c-0.7,1.2-1,2.6-1,4c0,1.3,0.3,2.6,0.9,3.7
				c0.6,1.1,1.5,2,2.5,2.6c1.2,0.8,2.5,1.4,3.8,1.9c1.5,0.5,3.2,1.1,5,1.6c2,0.7,4.2,1.4,6.4,2.3c2.2,0.8,4.2,2,6.1,3.3
				c1.9,1.4,3.4,3.2,4.5,5.2c1.3,2.4,1.9,5.1,1.8,7.9c0.1,3.1-0.6,6.2-1.9,9c-1.2,2.5-2.9,4.7-5.1,6.4c-2.2,1.7-4.7,3-7.4,3.8
				c-2.9,0.8-5.9,1.3-9,1.3c-4.2,0-8.3-0.8-12.2-2.3c-3.1-1.2-6-3-8.4-5.3c-0.8-0.8-0.8-2,0-2.7c0,0,0,0,0.1-0.1l5.2-4.9
				c0.8-0.7,2-0.7,2.8,0.1c1.4,1.5,3.1,2.7,5,3.6c3.6,1.9,7.8,2.4,11.8,1.4c1.4-0.3,2.6-0.9,3.8-1.7c1.1-0.8,2-1.8,2.7-2.9
				c0.7-1.3,1.1-2.9,1-4.4c0-1.5-0.4-3-1.2-4.2c-0.9-1.2-1.9-2.2-3.2-2.9c-1.5-0.9-3.1-1.6-4.7-2.1l-5.7-1.9c-2-0.6-3.9-1.3-5.8-2.2
				c-1.9-0.8-3.7-2-5.2-3.4c-1.6-1.4-2.9-3.2-3.8-5.1c-1-2.4-1.5-4.9-1.4-7.5c-0.1-2.9,0.6-5.8,2-8.4c1.3-2.3,3.1-4.3,5.3-5.8
				c2.3-1.6,4.8-2.7,7.5-3.4c2.8-0.8,5.7-1.1,8.5-1.1c3.4,0,6.7,0.6,9.9,1.7c2.6,0.9,5,2.1,7.1,3.8c0.8,0.7,1,1.9,0.3,2.7
				c0,0-0.1,0.1-0.1,0.1L496.8,515.6L496.8,515.6z"/>
			<path class="st2" d="M566.8,515.6c-0.7,0.8-1.9,0.9-2.7,0.2l0,0c-2.9-2.6-6.6-4-10.5-4.1c-1.3,0-2.7,0.2-4,0.5
				c-1.3,0.3-2.5,0.8-3.6,1.5c-1.1,0.7-2,1.6-2.7,2.7c-0.7,1.2-1,2.6-1,4c0,1.3,0.3,2.6,0.9,3.7c0.6,1,1.5,2,2.5,2.6
				c1.2,0.8,2.5,1.4,3.8,1.9c1.5,0.5,3.2,1.1,5,1.6c2,0.7,4.2,1.4,6.4,2.3c2.2,0.8,4.2,2,6.1,3.3c1.9,1.4,3.4,3.2,4.5,5.2
				c1.3,2.4,1.9,5.1,1.8,7.9c0.1,3.1-0.6,6.2-1.9,9c-1.2,2.5-2.9,4.7-5.1,6.4c-2.2,1.7-4.7,3-7.4,3.8c-2.9,0.9-6,1.3-9,1.3
				c-4.2,0-8.3-0.8-12.2-2.3c-3.1-1.2-6-3-8.4-5.4c-0.8-0.8-0.8-2,0-2.7c0,0,0,0,0.1-0.1l5.2-4.9c0.8-0.7,2-0.7,2.8,0.1
				c1.4,1.5,3.1,2.7,5,3.6c3.6,1.9,7.8,2.4,11.8,1.4c1.3-0.3,2.6-0.9,3.8-1.7c1.1-0.8,2-1.8,2.7-2.9c0.7-1.4,1.1-2.9,1-4.4
				c0.1-1.5-0.3-3-1.2-4.2c-0.8-1.2-1.9-2.2-3.2-2.9c-1.5-0.9-3.1-1.6-4.7-2.1l-5.7-1.9c-2-0.6-3.9-1.4-5.8-2.2
				c-1.9-0.8-3.7-2-5.2-3.3c-1.6-1.4-2.8-3.2-3.8-5.1c-1-2.4-1.5-4.9-1.4-7.5c-0.1-2.9,0.6-5.8,2-8.4c1.3-2.3,3.2-4.3,5.3-5.8
				c2.3-1.6,4.8-2.7,7.5-3.4c2.8-0.8,5.7-1.1,8.5-1.1c3.4,0,6.7,0.6,9.9,1.7c2.6,0.9,5,2.2,7.1,3.8c0.8,0.7,1,1.9,0.3,2.7
				c0,0-0.1,0.1-0.1,0.1L566.8,515.6L566.8,515.6z"/>
			<path class="st3" d="M63.3,567.8h22.1c17.2-46.6,37.6-91.1,64.3-133.8h-21c-1.6,0-3,0.9-3.6,2.3C104.4,469.9,83,512.2,63.3,567.8
				z"/>
		</g>
	</g>
</g>
</svg>
