<svg xmlns="http://www.w3.org/2000/svg" viewBox="0 0 20 20" fill="currentColor">
    <path d="M10 0C4.477 0 0 4.477 0 10s4.477 10 10 10 10-4.477 10-10S15.523 0 10 0zm0 18.333c-4.6 0-8.333-3.733-8.333-8.333S5.4 1.667 10 1.667 18.333 5.4 18.333 10 14.6 18.333 10 18.333z"/>
    <path d="M10 5c-.46 0-.833.373-.833.833v4.167H5c-.46 0-.833.373-.833.833s.373.833.833.833h4.167V15c0 .46.373.833.833.833s.833-.373.833-.833v-4.167H15c.46 0 .833-.373.833-.833s-.373-.833-.833-.833h-4.167V5.833C10.833 5.373 10.46 5 10 5z"/>
</svg>