<svg width="24" height="24" viewBox="0 0 24 24" fill="none" xmlns="http://www.w3.org/2000/svg">
<g clip-path="url(#clip0_83_214)">
<path d="M15.8542 20.2276C15.134 21.95 13.7644 23.3196 12.042 24.0398C10.3195 23.3196 8.94992 21.95 8.22976 20.2276H10.69C11.0448 20.7599 11.5031 21.2203 12.042 21.5807C12.5808 21.2214 13.0391 20.7599 13.3951 20.2276H15.8542ZM18.5735 14.5724L20.7506 17.0413V19.139H3.33331V17.0413L5.51048 14.5724V8.25314C5.51048 4.4616 8.23629 1.23504 12.042 0.0397797C15.8477 1.23504 18.5735 4.4616 18.5735 8.25314V14.5724ZM17.7788 16.9618L16.3963 15.3943V8.25314C16.3963 5.7298 14.6872 3.43072 12.042 2.35302C9.39672 3.43072 7.68764 5.72871 7.68764 8.25314V15.3943L6.30514 16.9618H17.7788ZM12.042 10.4303C11.4646 10.4303 10.9108 10.201 10.5025 9.79262C10.0942 9.3843 9.86481 8.83056 9.86481 8.25314C9.86481 7.67571 10.0942 7.12195 10.5025 6.71364C10.9108 6.30535 11.4646 6.07597 12.042 6.07597C12.6194 6.07597 13.1731 6.30535 13.5815 6.71364C13.9898 7.12195 14.2191 7.67571 14.2191 8.25314C14.2191 8.83056 13.9898 9.3843 13.5815 9.79262C13.1731 10.201 12.6194 10.4303 12.042 10.4303Z" fill="currentColor"/>
</g>
<defs>
<clipPath id="clip0_83_214">
<rect width="24" height="24" fill="currentColor"/>
</clipPath>
</defs>
</svg>
