<svg width="24" height="24" viewBox="0 0 24 24" fill="none" xmlns="http://www.w3.org/2000/svg">
<g clip-path="url(#clip0_5_203)">
<path fill-rule="evenodd" clip-rule="evenodd" d="M13.55 0C17.09 0 20.48 3.54 20.95 7.22V7.19C22.87 7.88 24 9.7 24 11.97C24 14.37 22.47 16.42 20.23 16.94L20.12 16.97H19C18.45 16.97 18 16.52 18 15.97C18 15.42 18.45 14.97 19 14.97H19.88C21.13 14.62 22 13.43 22 11.97C22 10.33 21.2 9.23 19.83 8.96C19.814 8.96 19.7932 8.9568 19.7682 8.95296C19.7308 8.9472 19.684 8.94 19.63 8.94C19.19 8.9 18.73 8.9 18.31 8.96H18.26C17.71 9.04 17.2 8.67 17.12 8.12C17.04 7.57 17.41 7.06 17.96 6.98L18.04 6.97C18.31 6.93 18.59 6.91 18.87 6.91C18.28 4.37 15.86 1.97 13.55 1.97C12.14 1.97 10.72 2.64 9.73 3.71C10.35 4.42 10.72 5.35 10.72 6.36C10.72 6.91 10.27 7.36 9.72 7.36C9.17 7.36 8.72 6.91 8.72 6.36C8.72 5.67 8.37 5.05 7.83 4.67H7.81C7.8 4.66 7.79 4.66 7.79 4.66C7.775 4.65 7.7625 4.6425 7.75 4.635C7.7375 4.6275 7.725 4.62 7.71 4.61C7.7 4.6 7.68 4.58 7.67 4.58C7.66 4.57 7.65 4.56 7.64 4.56C7.63333 4.55667 7.62666 4.55222 7.62 4.54778C7.60666 4.53889 7.59333 4.53 7.58 4.53H7.56C7.29 4.4 6.99 4.33 6.68 4.33C6.45 4.33 6.23 4.37 6.02 4.44C5.22 4.72 4.65 5.48 4.65 6.41V6.49V6.6V6.67V6.75V7.38L4.08 7.65C2.88 8.23 1.99 9.62 1.99 10.98C1.99 12.55 3 14.33 4.22 14.98H4.99C5.54 14.98 5.99 15.43 5.99 15.98C5.99 16.53 5.54 16.98 4.99 16.98H3.78L3.59 16.9C1.52 16 -0.0100021 13.38 -0.0100021 10.98C-0.0100021 9.06 1.06 7.18 2.65 6.16C2.66 6.02 2.67 5.88 2.69 5.75V5.74L2.72 5.56V5.52C2.74 5.46 2.75 5.41 2.76 5.36C2.77 5.34 2.77 5.33 2.77 5.31C2.775 5.285 2.7825 5.2625 2.79 5.24C2.7975 5.2175 2.805 5.195 2.81 5.17C2.82 5.15 2.83 5.13 2.83 5.11C2.84 5.06 2.85 5.02 2.87 4.98C2.87 4.97 2.875 4.96 2.88 4.95C2.885 4.94 2.89 4.93 2.89 4.92C2.9 4.9 2.9075 4.88 2.915 4.86C2.9225 4.84 2.93 4.82 2.94 4.8C2.94333 4.79333 2.94778 4.78667 2.95222 4.78C2.96111 4.76667 2.97 4.75333 2.97 4.74C2.98 4.72 2.9875 4.7025 2.995 4.685C3.0025 4.6675 3.01 4.65 3.02 4.63L3.05 4.57C3.05741 4.54033 3.07033 4.51617 3.08467 4.48934C3.08966 4.48 3.09483 4.47033 3.1 4.46C3.12 4.44 3.13 4.42 3.14 4.4C3.15 4.385 3.16 4.3675 3.17 4.35C3.18 4.3325 3.19 4.315 3.2 4.3C3.205 4.29 3.2125 4.28 3.22 4.27C3.2275 4.26 3.235 4.25 3.24 4.24C3.25 4.225 3.26 4.2075 3.27 4.19C3.28 4.1725 3.29 4.155 3.3 4.14C3.305 4.13 3.3125 4.12 3.32 4.11C3.3275 4.1 3.335 4.09 3.34 4.08C3.35 4.065 3.3625 4.05 3.375 4.035C3.3875 4.02 3.4 4.005 3.41 3.99C3.42 3.98 3.4275 3.97 3.435 3.96C3.4425 3.95 3.45 3.94 3.46 3.93C3.47 3.915 3.4825 3.9 3.495 3.885C3.5075 3.87 3.52 3.855 3.53 3.84C3.54 3.83 3.5475 3.82 3.555 3.81C3.5625 3.8 3.57 3.79 3.58 3.78C3.595 3.765 3.6075 3.75 3.62 3.735C3.6325 3.72 3.645 3.705 3.66 3.69C3.67 3.68 3.6775 3.67 3.685 3.66C3.6925 3.65 3.7 3.64 3.71 3.63C3.7296 3.61693 3.74493 3.5996 3.76157 3.58079C3.7704 3.5708 3.7796 3.5604 3.79 3.55C3.79646 3.53709 3.80708 3.52834 3.81919 3.51838C3.82583 3.51292 3.83291 3.50709 3.84 3.5C3.85306 3.4804 3.8704 3.46507 3.88921 3.44843C3.8992 3.4396 3.9096 3.4304 3.92 3.42C3.92646 3.40708 3.93708 3.39834 3.94919 3.38838C3.95583 3.38291 3.96291 3.37708 3.97 3.37C3.985 3.355 4 3.3425 4.015 3.33C4.03 3.3175 4.045 3.305 4.06 3.29C4.07 3.28 4.08 3.2725 4.09 3.265C4.1 3.2575 4.11 3.25 4.12 3.24C4.135 3.23 4.15 3.2175 4.165 3.205C4.18 3.1925 4.195 3.18 4.21 3.17C4.22 3.165 4.23 3.1575 4.24 3.15C4.25 3.1425 4.26 3.135 4.27 3.13C4.285 3.12 4.3025 3.1075 4.32 3.095C4.3375 3.0825 4.355 3.07 4.37 3.06C4.38 3.055 4.39 3.0475 4.4 3.04C4.41 3.0325 4.42 3.025 4.43 3.02C4.47 2.99 4.5 2.97 4.54 2.95L4.6 2.92C4.62 2.91 4.6375 2.9 4.655 2.89C4.6725 2.88 4.69 2.87 4.71 2.86C4.71666 2.85667 4.72333 2.85222 4.73 2.84778C4.74333 2.83889 4.75666 2.83 4.77 2.83L4.89 2.77C4.9 2.76 4.92 2.74 4.94 2.74C4.99 2.72 5.03 2.7 5.07 2.68C5.07536 2.67732 5.08 2.67464 5.08431 2.67215C5.09608 2.66536 5.10536 2.66 5.12 2.66C5.145 2.65 5.1675 2.6425 5.19 2.635C5.2125 2.6275 5.235 2.62 5.26 2.61C5.26536 2.60732 5.27 2.60464 5.27431 2.60215C5.28608 2.59536 5.29536 2.59 5.31 2.59C5.335 2.58 5.36 2.5725 5.385 2.565C5.41 2.5575 5.435 2.55 5.46 2.54C5.47 2.53 5.49 2.53 5.5 2.53C5.55 2.51 5.61 2.49 5.66 2.48H5.69C5.72 2.475 5.75 2.4675 5.78 2.46C5.81 2.4525 5.84 2.445 5.87 2.44H5.88C6.14 2.39 6.41 2.36 6.69 2.36C6.82 2.36 6.96 2.37 7.09 2.38H7.12C7.17 2.39 7.23 2.4 7.28 2.4H7.33C7.34803 2.40361 7.36476 2.40851 7.38112 2.41331C7.41015 2.42182 7.43803 2.43 7.47 2.43C7.49 2.44 7.51 2.44 7.53 2.44C7.55 2.445 7.5725 2.45 7.595 2.455C7.6175 2.46 7.64 2.465 7.66 2.47C7.68 2.48 7.7 2.48 7.72 2.48C7.76 2.5 7.8 2.51 7.84 2.52C7.86 2.53 7.88 2.54 7.9 2.54C7.925 2.55 7.9475 2.5575 7.97 2.565C7.9925 2.5725 8.015 2.58 8.04 2.59C8.05 2.6 8.06 2.6 8.07 2.6C9.44 1.01 11.47 0 13.55 0ZM17 17C17 18.02 16.69 18.97 16.17 19.76L18.71 22.3C19.1 22.69 19.1 23.32 18.71 23.71C18.32 24.1 17.69 24.1 17.3 23.71L14.76 21.17C13.97 21.69 13.02 22 12 22C9.24 22 7 19.76 7 17C7 14.24 9.24 12 12 12C14.76 12 17 14.24 17 17ZM12 14C10.34 14 9 15.34 9 17C9 18.66 10.34 20 12 20C12.83 20 13.58 19.66 14.12 19.12C14.66 18.58 15 17.83 15 17C15 15.34 13.66 14 12 14Z" fill="currentColor"/>
</g>
<defs>
<clipPath id="clip0_5_203">
<rect width="24" height="24" fill="currentColor"/>
</clipPath>
</defs>
</svg>
