<svg width="24" height="24" viewBox="0 0 24 24" fill="none" xmlns="http://www.w3.org/2000/svg">
<g clip-path="url(#clip0_166_655)">
<path d="M1.09091 18.5455C0.801583 18.5455 0.524106 18.6604 0.31952 18.865C0.114935 19.0696 0 19.3471 0 19.6364C0 19.9257 0.114935 20.2032 0.31952 20.4078C0.524106 20.6124 0.801583 20.7273 1.09091 20.7273H3.27273C3.56204 20.7272 3.83947 20.6123 4.044 20.4077L5.01492 19.4368C5.61026 20.7936 6.5879 21.9477 7.8284 22.7581C9.0689 23.5685 10.5186 24 12.0003 24C13.482 24 14.9317 23.5685 16.1722 22.7581C17.4127 21.9477 18.3903 20.7936 18.9857 19.4368L19.9566 20.4077C20.161 20.6121 20.4382 20.7271 20.7273 20.7273H22.9091C23.1984 20.7273 23.4759 20.6124 23.6805 20.4078C23.8851 20.2032 24 19.9257 24 19.6364C24 19.3471 23.8851 19.0696 23.6805 18.865C23.4759 18.6604 23.1984 18.5455 22.9091 18.5455H21.1789L19.6053 16.9718C19.6211 16.7706 19.6358 16.5687 19.6358 16.3637V12.4517L19.9555 12.7713C20.0568 12.8727 20.1771 12.9531 20.3096 13.0079C20.442 13.0628 20.584 13.091 20.7273 13.0909H22.9091C23.1984 13.0909 23.4759 12.976 23.6805 12.7714C23.8851 12.5668 24 12.2893 24 12C24 11.7107 23.8851 11.4332 23.6805 11.2286C23.4759 11.024 23.1984 10.9091 22.9091 10.9091H21.1789L19.6277 9.35783C19.6277 9.32947 19.6364 9.30329 19.6364 9.27274C19.634 9.16534 19.6156 9.05889 19.5818 8.95692C19.3599 7.00555 18.394 5.21494 16.8851 3.95782L17.3946 3.7031C17.5762 3.61282 17.7291 3.47368 17.8361 3.3013C17.943 3.12892 17.9998 2.93014 18 2.72728V1.09091C18 0.801583 17.8851 0.524106 17.6805 0.319521C17.4759 0.114935 17.1984 0 16.9091 0C16.6198 0 16.3423 0.114935 16.1377 0.319521C15.9331 0.524106 15.8182 0.801583 15.8182 1.09091V2.05309L14.6182 2.65309C12.9295 2.02349 11.0705 2.02349 9.38183 2.65309L8.18183 2.05309V1.09091C8.18183 0.801583 8.06689 0.524106 7.86231 0.319521C7.65772 0.114935 7.38025 0 7.09092 0C6.80159 0 6.52411 0.114935 6.31953 0.319521C6.11494 0.524106 6.00001 0.801583 6.00001 1.09091V2.72728C5.99996 2.92985 6.05633 3.12844 6.16278 3.30079C6.26923 3.47314 6.42157 3.61244 6.60274 3.7031L7.11219 3.95782C5.60432 5.21541 4.6394 7.00596 4.41819 8.95692C4.38438 9.05889 4.366 9.16534 4.36364 9.27274C4.36364 9.30165 4.37019 9.32729 4.37237 9.35783L2.82055 10.9091H1.09091C0.801583 10.9091 0.524106 11.024 0.31952 11.2286C0.114935 11.4332 0 11.7107 0 12C0 12.2893 0.114935 12.5668 0.31952 12.7714C0.524106 12.976 0.801583 13.0909 1.09091 13.0909H3.27273C3.56204 13.0909 3.83947 12.9759 4.044 12.7713L4.36364 12.4517V16.3637C4.36364 16.5687 4.37837 16.7706 4.39419 16.9718L2.82055 18.5455H1.09091ZM17.4546 10.3637V16.3637C17.4531 17.6206 17.0182 18.8387 16.2234 19.8124C15.4285 20.7861 14.3222 21.456 13.0909 21.7091V10.3637H17.4546ZM12 4.36364C13.1603 4.36513 14.2901 4.73597 15.2255 5.42245C16.161 6.10893 16.8536 7.07538 17.2031 8.18183H6.79692C7.14639 7.07538 7.83903 6.10893 8.7745 5.42245C9.70997 4.73597 10.8397 4.36513 12 4.36364ZM6.54546 10.3637H10.9091V21.7091C9.67787 21.456 8.57156 20.7861 7.77667 19.8124C6.98179 18.8387 6.54695 17.6206 6.54546 16.3637V10.3637Z" fill="currentColor"/>
</g>
<defs>
<clipPath id="clip0_166_655">
<rect width="24" height="24" fill="currentColor"/>
</clipPath>
</defs>
</svg>
