<svg width="24" height="24" viewBox="0 0 24 24" fill="none" xmlns="http://www.w3.org/2000/svg">
<path d="M21.1875 6.60938H18.3281V3.89062C18.3281 2.33972 17.0665 1.07812 15.5156 1.07812H2.8125C1.2616 1.07812 0 2.33972 0 3.89062V12.7557C0 14.3066 1.2616 15.5682 2.8125 15.5682H8.29688V17.4432H5.20312V19.3182H12.0469V20.1094C12.0469 21.6603 13.3085 22.9219 14.8594 22.9219H21.1875C22.7384 22.9219 24 21.6603 24 20.1094V9.42188C24 7.87097 22.7384 6.60938 21.1875 6.60938ZM1.875 12.7557V3.89062C1.875 3.37372 2.29559 2.95312 2.8125 2.95312H15.5156C16.0325 2.95312 16.4531 3.37372 16.4531 3.89062V6.60938H14.8594C13.3085 6.60938 12.0469 7.87097 12.0469 9.42188V13.6932H2.8125C2.29559 13.6932 1.875 13.2726 1.875 12.7557ZM10.1719 17.4432V15.5682H12.0469V17.4432H10.1719ZM22.125 20.1094C22.125 20.6263 21.7044 21.0469 21.1875 21.0469H14.8594C14.3425 21.0469 13.9219 20.6263 13.9219 20.1094V9.42188C13.9219 8.90497 14.3425 8.48438 14.8594 8.48438H21.1875C21.7044 8.48438 22.125 8.90497 22.125 9.42188V20.1094ZM18.9844 18.0625C18.9844 18.5803 18.5647 19 18.0469 19C17.5291 19 17.1094 18.5803 17.1094 18.0625C17.1094 17.5447 17.5291 17.125 18.0469 17.125C18.5647 17.125 18.9844 17.5447 18.9844 18.0625Z" fill="currentColor"/>
</svg>
