<svg width="25" height="25" viewBox="0 0 25 25" fill="none" xmlns="http://www.w3.org/2000/svg">
<g clip-path="url(#clip0_164_125)">
<path d="M19.1333 22.2667C19.1333 23.5923 18.0589 24.6667 16.7333 24.6667H4.73334C3.40786 24.6667 2.33334 23.5923 2.33334 22.2667V3.06675C2.33334 1.74126 3.40786 0.666748 4.73334 0.666748H16.7333C18.0589 0.666748 19.1333 1.74126 19.1333 3.06675V5.46675H16.7333V3.06675H4.73334V22.2667H16.7333V19.8667H19.1333V22.2667Z" fill="currentColor"/>
<path d="M18.6363 11.4667L15.8849 8.71536L17.582 7.01831L23.2305 12.6669L17.582 18.3154L15.8849 16.6184L18.6364 13.8667H10.7333V11.4667H18.6363Z" fill="currentColor"/>
</g>
<defs>
<clipPath id="clip0_164_125">
<rect width="24" height="24" fill="currentColor" transform="translate(0.333344 0.666748)"/>
</clipPath>
</defs>
</svg>
