<svg width="24" height="24" viewBox="0 0 24 24" fill="none" xmlns="http://www.w3.org/2000/svg">
<path fill-rule="evenodd" clip-rule="evenodd" d="M0 12.2681C2.40029 7.4906 6.86912 4.26801 12 4.26801C17.1309 4.26801 21.5997 7.4909 24 12.2681C21.5997 17.0465 17.1309 20.2679 12 20.2679C6.86912 20.2679 2.40029 17.0465 0 12.2681ZM2.27848 12.2681C4.49221 15.9935 8.13867 18.2681 12 18.2681C15.8613 18.2681 19.5078 15.9935 21.7215 12.2681C19.5078 8.54271 15.8613 6.2681 12 6.2681C8.13867 6.2681 4.49215 8.54271 2.27848 12.2681ZM7.5 12.2681C7.5 9.78168 9.51357 7.7681 12 7.7681C14.4852 7.7681 16.5 9.78168 16.5 12.2681C16.5 14.7536 14.4852 16.7681 12 16.7681C9.51357 16.7681 7.5 14.7536 7.5 12.2681ZM9.5001 12.2681C9.5001 13.6493 10.6191 14.7683 12 14.7683C13.3809 14.7683 14.4999 13.6493 14.4999 12.2681C14.4999 10.8872 13.3809 9.7682 12 9.7682C10.6191 9.7682 9.5001 10.8872 9.5001 12.2681Z" fill="currentColor"/>
</svg>
