<svg width="24" height="24" viewBox="0 0 24 24" fill="none" xmlns="http://www.w3.org/2000/svg">
<g clip-path="url(#clip0_142_3850)">
<path fill-rule="evenodd" clip-rule="evenodd" d="M1.01319 23.1466H1.2617C1.75871 23.1466 2.25572 22.7738 2.50423 22.1525L3.92569 15.6913H10.8292L10.9534 16.0641C11.5747 17.4309 12.9415 18.1764 14.3083 18.1764H20.2724C20.8937 18.1764 21.3907 17.8036 21.5149 17.1824L24 5.99961C24 5.62685 24 5.25409 23.7515 5.00558C23.503 4.63282 23.1302 4.50857 22.7575 4.50857H14.8053L14.681 4.13581C14.0598 2.76903 12.693 2.02351 11.3262 2.02351H5.61037C4.98921 1.89938 4.24391 2.27205 4.11956 3.01734C4.11954 3.0174 4.11953 3.01747 4.11952 3.01753L4.11952 3.01757L1.63446 14.2003C1.63446 14.2376 1.63446 14.275 1.63471 14.3122L0.0191674 21.6555C-0.105086 22.2768 0.391926 23.0223 1.01319 23.1466ZM4.4724 13.2063L6.3859 4.50857H11.3262C11.699 4.50857 12.196 4.75708 12.5687 5.12984L12.8172 5.50259C13.3142 6.37237 14.0598 6.86938 15.0538 6.86938H21.3907L19.4026 15.5671H14.4325C13.9355 15.5671 13.5627 15.3186 13.3142 14.9458L13.0657 14.5731C12.693 13.7033 11.8232 13.2063 10.8292 13.2063H4.4724Z" fill="currentColor"/>
</g>
<defs>
<clipPath id="clip0_142_3850">
<rect width="24" height="24" fill="currentColor"/>
</clipPath>
</defs>
</svg>
