<svg width="24" height="24" viewBox="0 0 24 24" fill="none" xmlns="http://www.w3.org/2000/svg">
<path d="M20.8742 15.5618C20.8742 11.9524 18.9983 10.2839 17.1842 8.67034C15.2255 6.92823 13.3754 5.28262 13.3745 0.946935C13.3767 0.747914 13.3157 0.546549 13.1871 0.375041C12.8764 -0.0391264 12.2889 -0.123122 11.8746 0.18755C6.89374 3.92321 4 9.38445 4 15.5618C4 20.3506 7.99989 24.113 12.5579 23.9974C17.1546 23.9324 20.8742 20.1737 20.8742 15.5618ZM9.62473 19.3116C9.62473 18.1389 10.2869 17.4387 11.1253 16.5522C11.8285 15.8087 12.6524 14.9375 13.0813 13.6679C14.4589 15.2038 15.2495 17.2207 15.2495 19.3116C15.2495 20.8624 13.9878 22.124 12.4371 22.124C10.8864 22.124 9.62473 20.8624 9.62473 19.3116ZM17.0314 20.2425C17.0923 19.9415 17.1244 19.6303 17.1244 19.3116C17.1244 17.7191 16.7479 16.1244 16.0357 14.7C15.3235 13.2755 14.2736 12.0176 12.9996 11.062C12.7155 10.849 12.3355 10.8147 12.0179 10.9735C11.7003 11.1323 11.4996 11.4569 11.4996 11.812C11.4996 13.4278 10.6949 14.2787 9.7631 15.2639C8.81941 16.2618 7.74982 17.3927 7.74982 19.3116C7.74982 19.6303 7.78193 19.9415 7.84277 20.2425C6.62909 19.051 5.87491 17.3929 5.87491 15.5618C5.87491 10.6402 7.89995 6.17793 11.6166 2.82489C11.812 4.31343 12.2535 5.61316 12.9508 6.76375C15.2419 10.5439 18.9993 11.0237 18.9993 15.5618C18.9993 17.3929 18.2451 19.051 17.0314 20.2425Z" fill="currentColor"/>
</svg>
