<svg width="24" height="24" viewBox="0 0 24 24" fill="none" xmlns="http://www.w3.org/2000/svg">
<g clip-path="url(#clip0_5_202)">
<path fill-rule="evenodd" clip-rule="evenodd" d="M21.87 9.7L23.19 9.96L23.18 9.94C23.65 10.03 23.99 10.44 23.99 10.92V13.46C23.99 13.96 23.63 14.37 23.14 14.45L21.75 14.66C20.49 14.85 19.87 16.28 20.58 17.33L21.34 18.45C21.61 18.85 21.56 19.38 21.22 19.72L19.43 21.51C19.08 21.86 18.53 21.9 18.13 21.61L17.33 21.03C16.29 20.27 14.81 20.88 14.61 22.16L14.46 23.14C14.38 23.63 13.96 23.99 13.47 23.99H10.93C10.45 23.99 10.04 23.65 9.95 23.18L9.7 21.86C9.46 20.62 8.01 20.05 6.99 20.8L5.86 21.63C5.46 21.92 4.91 21.88 4.56 21.53L2.77 19.74C2.43 19.4 2.38 18.87 2.65 18.47L3.41 17.35C4.12 16.3 3.49 14.87 2.24 14.68L0.85 14.47C0.36 14.39 0 13.97 0 13.48V10.94C0 10.46 0.34 10.05 0.81 9.95L2.13 9.69C3.37 9.45 3.94 8 3.19 6.98L2.36 5.85C2.07 5.45 2.11 4.9 2.46 4.55L4.26 2.76C4.6 2.42 5.13 2.37 5.53 2.64L6.97 3.62C8 4.32 9.4 3.74 9.63 2.52L9.96 0.81C10.05 0.34 10.46 0 10.94 0H13.48C13.97 0 14.39 0.36 14.48 0.85L14.69 2.24C14.88 3.5 16.31 4.12 17.36 3.41L18.48 2.65C18.88 2.38 19.41 2.43 19.75 2.77L21.54 4.56C21.89 4.91 21.93 5.46 21.64 5.86L20.81 6.99C20.06 8.01 20.63 9.46 21.87 9.7ZM21.46 12.7L22 12.62H21.99V11.77L21.48 11.67C18.79 11.15 17.56 8.02 19.18 5.81L19.5 5.37L18.9 4.77L18.47 5.06C16.21 6.59 13.12 5.24 12.7 2.54L12.62 2H11.77L11.6 2.9C11.09 5.53 8.06 6.78 5.85 5.28L5.09 4.77L4.49 5.37L4.81 5.81C6.43 8.02 5.19 11.15 2.51 11.67L2 11.77V12.62L2.54 12.7C5.25 13.12 6.59 16.21 5.06 18.47L4.77 18.9L5.37 19.5L5.81 19.18C8.02 17.56 11.15 18.79 11.67 21.48L11.77 21.99H12.62L12.64 21.86C13.06 19.09 16.27 17.77 18.52 19.42L18.63 19.5L19.23 18.9L18.94 18.47C17.41 16.21 18.76 13.12 21.46 12.7ZM7 12C7 9.24 9.24 7 12 7C14.76 7 17 9.24 17 12C17 14.76 14.76 17 12 17C9.24 17 7 14.76 7 12ZM9 12C9 13.66 10.34 15 12 15C13.66 15 15 13.66 15 12C15 10.34 13.66 9 12 9C10.34 9 9 10.34 9 12Z" fill="currentColor"/>
</g>
<defs>
<clipPath id="clip0_5_202">
<rect width="24" height="24" fill="currentColor"/>
</clipPath>
</defs>
</svg>
