<svg width="24" height="24" viewBox="0 0 24 24" fill="none" xmlns="http://www.w3.org/2000/svg">
<g clip-path="url(#clip0_5_207)">
<path d="M23.67 10.2599L12.78 0.349941L12.68 0.259941C12.61 0.189941 12.53 0.139941 12.45 0.0999414C12.45 0.0999414 12.45 0.0999414 12.44 0.0999414C12.17 -0.0300586 11.85 -0.0300586 11.58 0.0999414C11.58 0.0999414 11.58 0.0999414 11.57 0.0999414C11.49 0.139941 11.41 0.189941 11.34 0.259941L11.24 0.349941L0.329998 10.2599C-0.0800017 10.6299 -0.110002 11.2599 0.259998 11.6699C0.629998 12.0799 1.26 12.1099 1.67 11.7399L2 11.4399V22.9999C2 23.5499 2.45 23.9999 3 23.9999H21C21.55 23.9999 22 23.5499 22 22.9999V11.4399L22.33 11.7399C22.74 12.1099 23.37 12.0799 23.74 11.6699C24.11 11.2599 24.08 10.6299 23.67 10.2599ZM10 21.9999V15.9999C10 14.8999 10.9 13.9999 12 13.9999C13.1 13.9999 14 14.8999 14 15.9999V21.9999H10ZM20 21.9999H16V15.9999C16 13.7899 14.21 11.9999 12 11.9999C9.79 11.9999 8 13.7899 8 15.9999V21.9999H4V9.61994L12 2.34994L20 9.61994V21.9999Z" fill="currentColor"/>
</g>
<defs>
<clipPath id="clip0_5_207">
<rect width="24" height="24" fill="currentColor"/>
</clipPath>
</defs>
</svg>
