<svg width="24" height="24" viewBox="0 0 24 24" fill="none" xmlns="http://www.w3.org/2000/svg">
<g clip-path="url(#clip0_5_206)">
<path d="M23.54 15.1599L18.58 11.9999L23.54 8.83994C24.16 8.44994 24.16 7.54994 23.54 7.14994L12.54 0.159941C12.21 -0.0500586 11.79 -0.0500586 11.47 0.159941L0.460003 7.15994C-0.159997 7.54994 -0.159997 8.44994 0.460003 8.84994L5.42 12.0099L0.460003 15.1599C-0.159997 15.5499 -0.159997 16.4499 0.460003 16.8499L11.46 23.8499C11.79 24.0599 12.21 24.0599 12.53 23.8499L23.53 16.8499C24.15 16.4599 24.15 15.5599 23.53 15.1599H23.54ZM12 2.18994L21.14 7.99994L16.18 11.1499L12 13.8099L7.82 11.1499L2.86 7.99994L12 2.18994ZM12 21.8199L2.86 15.9999L7.28 13.1899L11.45 15.8399C11.45 15.8399 11.48 15.8599 11.5 15.8699C11.5 15.8699 11.51 15.8699 11.52 15.8699C11.56 15.8899 11.6 15.9099 11.65 15.9299C11.66 15.9299 11.67 15.9299 11.69 15.9399C11.7 15.9399 11.71 15.9399 11.72 15.9499C11.76 15.9599 11.79 15.9699 11.83 15.9699C11.94 15.9899 12.06 15.9899 12.17 15.9699C12.21 15.9699 12.24 15.9599 12.28 15.9499C12.29 15.9499 12.3 15.9499 12.31 15.9399C12.32 15.9399 12.33 15.9399 12.35 15.9299C12.39 15.9099 12.44 15.8999 12.48 15.8699C12.48 15.8699 12.49 15.8699 12.5 15.8699C12.52 15.8699 12.53 15.8499 12.55 15.8399L16.72 13.1799L21.14 15.9899L12 21.7999V21.8199Z" fill="currentColor"/>
</g>
<defs>
<clipPath id="clip0_5_206">
<rect width="24" height="24" fill="currentColor"/>
</clipPath>
</defs>
</svg>
