<svg width="24" height="24" viewBox="0 0 24 24" fill="none" xmlns="http://www.w3.org/2000/svg">
<g clip-path="url(#clip0_155_8347)">
<path fill-rule="evenodd" clip-rule="evenodd" d="M15.8614 2.78676C14.6389 2.27182 13.3265 2.00443 12 2.00008C9.34871 2.00299 6.80687 3.05749 4.93214 4.93222C3.05742 6.80694 2.00292 9.34878 2.00001 12H1.36473e-05C-0.00348416 9.68205 0.665456 7.41281 1.92575 5.46736C3.18605 3.52192 4.98359 1.9838 7.1005 1.03945C9.21741 0.0950942 11.5628 -0.21495 13.8524 0.146896C16.1419 0.508741 18.2774 1.52694 19.9999 3.07808V8.75782e-05H21.9999V5.14307C21.9994 5.63541 21.8036 6.10744 21.4554 6.45558C21.1073 6.80372 20.6353 6.99953 20.1429 7.00006H15V5.00007H19.1219C18.1921 4.05399 17.0839 3.30171 15.8614 2.78676ZM20.3082 17.5754C21.4138 15.9264 22.0028 13.9853 21.9999 12H23.9999C24.0034 14.3179 23.3345 16.5872 22.0742 18.5326C20.8139 20.4781 19.0163 22.0162 16.8994 22.9606C14.7825 23.9049 12.4371 24.215 10.1476 23.8531C7.85797 23.4913 5.72251 22.4731 3.99998 20.9219V23.9999H1.99999V18.8569C2.00052 18.3646 2.19634 17.8926 2.54448 17.5444C2.89262 17.1963 3.36464 17.0005 3.85699 16.9999H8.99997V18.9999H4.87798C6.26679 20.4187 8.04696 21.3912 9.99113 21.7934C11.9353 22.1955 13.9552 22.0091 15.7929 21.2578C17.6306 20.5064 19.2026 19.2244 20.3082 17.5754Z" fill="currentColor"/>
</g>
<defs>
<clipPath id="clip0_155_8347">
<rect width="24" height="24" fill="currentColor"/>
</clipPath>
</defs>
</svg>
