<svg width="24" height="24" viewBox="0 0 24 24" fill="none" xmlns="http://www.w3.org/2000/svg">
<g clip-path="url(#clip0_5_204)">
<path fill-rule="evenodd" clip-rule="evenodd" d="M3.09 9.8C3.09 10.4 2.6 10.89 2 10.89C1.4 10.89 0.910004 10.4 0.910004 9.8C0.910004 6.79 3.35 4.36 6.36 4.36H15.07V1.09C15.07 0.180001 16.13 -0.329999 16.84 0.240001L22.28 4.59C22.82 5.03 22.82 5.85 22.28 6.29L16.84 10.65C16.13 11.22 15.07 10.71 15.07 9.8V6.53H6.36C4.55 6.53 3.09 7.99 3.09 9.8ZM19.86 5.45L17.25 3.36V7.54L19.86 5.45ZM20.51 14.1599C20.51 13.5616 20.9973 13.0727 21.595 13.07C22.1927 13.0727 22.68 13.5616 22.68 14.1599C22.68 17.1599 20.25 19.5999 17.24 19.5999H8.52999V22.8699C8.52999 23.7799 7.46999 24.2899 6.75999 23.7199L1.31999 19.3599C0.779993 18.9199 0.779993 18.0999 1.31999 17.6599L6.76999 13.3099C7.47999 12.7399 8.53999 13.2499 8.53999 14.1599V17.4299H17.24C19.05 17.4299 20.51 15.9699 20.51 14.1599ZM21.595 13.07C21.5967 13.07 21.5983 13.0699 21.6 13.0699H21.59C21.5917 13.0699 21.5933 13.07 21.595 13.07ZM3.73999 18.5099L6.34999 20.5999V16.4199L3.73999 18.5099Z" fill="currentColor"/>
</g>
<defs>
<clipPath id="clip0_5_204">
<rect width="24" height="24" fill="currentColor"/>
</clipPath>
</defs>
</svg>
