<svg width="24" height="24" viewBox="0 0 24 24" fill="none" xmlns="http://www.w3.org/2000/svg">
<g clip-path="url(#clip0_5_205)">
<path d="M21.61 17.32L20 16.63V14.45C21.26 13.32 22 11.73 22 10V5.52C22 2.47 19.53 0 16.48 0H15.52C13.56 0 11.83 1.03 10.85 2.57C10.05 2.21 9.14 2 8.32 2H7.36C4.37 2 2 4.88 2 8.02V11.02C2 12.74 2.74 14.34 4 15.47V16.62L2.39 17.31C0.94 17.93 0 19.36 0 20.93V22.99C0 23.54 0.45 23.99 1 23.99H9C9 23.99 9.01 23.99 9.02 23.99H23C23.55 23.99 24 23.54 24 22.99V20.93C24 19.36 23.06 17.93 21.61 17.31V17.32ZM2 20.94C2 20.16 2.46 19.46 3.18 19.16L5.4 18.21C5.77 18.05 6.01 17.69 6.01 17.29V15C6.01 14.69 5.86 14.39 5.61 14.2C4.61 13.44 4.01 12.28 4.01 11.02V8.02C4.01 5.91 5.58 4 7.37 4H8.33C8.89 4 9.56 4.17 10.12 4.43C10.1 4.54 10.08 4.64 10.07 4.75C10.04 4.94 10.02 5.11 10.02 5.28V5.35C10.02 5.41 10.02 5.46 10.02 5.52V10C10.02 10.05 10.02 10.1 10.02 10.15C10.02 10.17 10.02 10.19 10.02 10.21C10.02 10.24 10.02 10.27 10.02 10.31C10.02 10.33 10.02 10.36 10.02 10.38C10.02 10.41 10.02 10.43 10.02 10.46C10.02 10.49 10.02 10.52 10.02 10.54C10.02 10.56 10.02 10.58 10.02 10.6C10.02 10.63 10.02 10.67 10.03 10.7C10.03 10.71 10.03 10.73 10.03 10.74C10.03 10.78 10.03 10.82 10.05 10.86C10.05 10.86 10.05 10.86 10.05 10.87C10.25 12.26 10.94 13.52 11.99 14.45V16.63L10.95 17.08L10.38 17.32C9.59 17.66 8.95 18.24 8.54 18.95C8.19 19.54 8 20.23 8 20.94V22H2V20.94ZM22 22H10V20.94C10 20.62 10.08 20.31 10.23 20.03C10.43 19.65 10.76 19.33 11.18 19.15L11.75 18.91L12.4 18.63L12.93 18.4L13.4 18.2C13.77 18.04 14.01 17.68 14.01 17.28V13.97C14.01 13.97 14.01 13.93 14.01 13.91C14.01 13.91 14.01 13.9 14.01 13.89C14.01 13.88 14.01 13.86 14.01 13.85C14.01 13.85 14.01 13.84 14.01 13.83C14.01 13.82 14.01 13.81 14.01 13.79C14.01 13.79 14.01 13.78 14.01 13.77C14.01 13.76 14.01 13.75 14.01 13.74C14.01 13.74 14.01 13.73 14.01 13.72C14.01 13.71 14.01 13.7 14.01 13.69C14.01 13.69 14.01 13.68 14.01 13.67C14.01 13.66 14.01 13.65 14 13.63C14 13.63 14 13.62 14 13.61C14 13.6 14 13.58 13.99 13.57C13.99 13.57 13.99 13.57 13.99 13.56C13.99 13.55 13.98 13.53 13.97 13.52C13.95 13.49 13.93 13.45 13.91 13.42C13.91 13.41 13.89 13.39 13.88 13.38C13.88 13.37 13.86 13.36 13.85 13.34C13.85 13.34 13.85 13.34 13.85 13.33C13.85 13.32 13.83 13.31 13.82 13.3C13.82 13.3 13.82 13.3 13.82 13.29C13.82 13.28 13.8 13.27 13.79 13.26C13.79 13.26 13.79 13.26 13.78 13.26C13.78 13.26 13.78 13.26 13.77 13.25L13.15 12.68C12.99 12.51 12.85 12.33 12.72 12.13C12.72 12.13 12.71 12.11 12.7 12.1C12.67 12.06 12.65 12.02 12.63 11.98C12.62 11.96 12.61 11.94 12.6 11.92C12.59 11.9 12.57 11.87 12.56 11.85C12.54 11.82 12.52 11.78 12.51 11.75C12.5 11.72 12.48 11.7 12.47 11.67C12.46 11.65 12.45 11.62 12.44 11.6C12.43 11.57 12.41 11.54 12.4 11.51C12.39 11.48 12.38 11.46 12.37 11.43C12.36 11.4 12.34 11.36 12.33 11.33C12.33 11.31 12.32 11.3 12.31 11.28C12.29 11.23 12.28 11.19 12.26 11.14C12.26 11.13 12.26 11.11 12.25 11.1C12.24 11.05 12.22 11.01 12.21 10.96C12.21 10.96 12.21 10.95 12.21 10.94C12.2 10.89 12.19 10.83 12.17 10.78C12.17 10.77 12.17 10.76 12.17 10.75C12.16 10.7 12.15 10.64 12.14 10.59C12.14 10.59 12.14 10.58 12.14 10.57C12.14 10.52 12.13 10.46 12.12 10.41C12.12 10.41 12.12 10.39 12.12 10.38C12.12 10.33 12.12 10.27 12.11 10.22C12.11 10.21 12.11 10.2 12.11 10.19C12.11 10.13 12.11 10.08 12.11 10.02V5.41C12.11 5.29 12.13 5.17 12.14 5.05C12.14 5 12.16 4.95 12.17 4.89C12.19 4.81 12.21 4.73 12.24 4.63C12.24 4.61 12.3 4.4 12.34 4.28C12.84 2.95 14.13 2.01 15.63 2.01H16.59C18.53 2.01 20.11 3.59 20.11 5.53V10.01C20.11 11.27 19.51 12.43 18.51 13.19C18.26 13.38 18.11 13.67 18.11 13.99V17.3C18.11 17.7 18.35 18.06 18.72 18.22L20.94 19.17C21.65 19.48 22.11 20.18 22.11 20.95V22.01L22 22Z" fill="currentColor"/>
</g>
<defs>
<clipPath id="clip0_5_205">
<rect width="24" height="24" fill="currentColor"/>
</clipPath>
</defs>
</svg>
