<svg width="25" height="25" viewBox="0 0 25 25" fill="none" xmlns="http://www.w3.org/2000/svg">
<g clip-path="url(#clip0_70_443)">
<path fill-rule="evenodd" clip-rule="evenodd" d="M21.9495 4.91881H18.6768V3.8279C18.6768 2.95992 18.332 2.12749 17.7182 1.51373C17.1045 0.89998 16.2721 0.555176 15.4041 0.555176H8.85862C7.99064 0.555176 7.15821 0.89998 6.54445 1.51373C5.9307 2.12749 5.58589 2.95992 5.58589 3.8279V4.91881H2.31317C2.02384 4.91881 1.74636 5.03375 1.54178 5.23833C1.33719 5.44292 1.22226 5.72039 1.22226 6.00972C1.22226 6.29905 1.33719 6.57652 1.54178 6.78111C1.74636 6.98569 2.02384 7.10063 2.31317 7.10063H2.37862L3.15317 19.4388C3.23934 20.826 3.85184 22.128 4.86557 23.0789C5.87931 24.0298 7.21781 24.5578 8.60771 24.5552H15.6768C17.0667 24.5578 18.4052 24.0298 19.4189 23.0789C20.4327 22.128 21.0452 20.826 21.1313 19.4388L21.8841 7.10063H21.9495C22.2389 7.10063 22.5163 6.98569 22.7209 6.78111C22.9255 6.57652 23.0404 6.29905 23.0404 6.00972C23.0404 5.72039 22.9255 5.44292 22.7209 5.23833C22.5163 5.03375 22.2389 4.91881 21.9495 4.91881ZM7.76771 3.8279C7.76771 3.53857 7.88265 3.2611 8.08723 3.05651C8.29182 2.85193 8.56929 2.73699 8.85862 2.73699H15.4041C15.6934 2.73699 15.9709 2.85193 16.1755 3.05651C16.38 3.2611 16.495 3.53857 16.495 3.8279V4.91881H7.76771V3.8279ZM18.9386 19.3079C18.8858 20.1395 18.5179 20.9196 17.9098 21.4892C17.3016 22.0588 16.4991 22.375 15.6659 22.3733H8.5968C7.76357 22.375 6.96107 22.0588 6.35294 21.4892C5.74481 20.9196 5.37685 20.1395 5.32408 19.3079L4.56044 7.10063H19.7023L18.9386 19.3079ZM9.94952 10.3734C9.66019 10.3734 9.38272 10.4883 9.17813 10.6929C8.97355 10.8975 8.85861 11.1749 8.85861 11.4643V18.0097C8.85861 18.299 8.97355 18.5765 9.17813 18.7811C9.38272 18.9857 9.66019 19.1006 9.94952 19.1006C10.2388 19.1006 10.5163 18.9857 10.7209 18.7811C10.9255 18.5765 11.0404 18.299 11.0404 18.0097V11.4643C11.0404 11.1749 10.9255 10.8975 10.7209 10.6929C10.5163 10.4883 10.2388 10.3734 9.94952 10.3734ZM13.5418 10.6929C13.7464 10.4883 14.0238 10.3734 14.3132 10.3734C14.6025 10.3734 14.88 10.4883 15.0846 10.6929C15.2891 10.8975 15.4041 11.1749 15.4041 11.4643V18.0097C15.4041 18.299 15.2891 18.5765 15.0846 18.7811C14.88 18.9857 14.6025 19.1006 14.3132 19.1006C14.0238 19.1006 13.7464 18.9857 13.5418 18.7811C13.3372 18.5765 13.2223 18.299 13.2223 18.0097V11.4643C13.2223 11.1749 13.3372 10.8975 13.5418 10.6929Z" fill="currentColor"/>
</g>
<defs>
<clipPath id="clip0_70_443">
<rect width="24" height="24" fill="currentColor" transform="translate(0.22226 0.555176)"/>
</clipPath>
</defs>
</svg>
