<svg width="24" height="24" viewBox="0 0 24 24" fill="none" xmlns="http://www.w3.org/2000/svg">
<g clip-path="url(#clip0_142_3830)">
<path d="M12 24C5.4 24 0 18.6 0 12C0 5.4 5.4 0 12 0C18.6 0 24 5.4 24 12C24 18.6 18.6 24 12 24ZM9.5 17C10.1 20.1 11.2 22 12 22C12.8 22 13.9 20.1 14.5 17H9.5ZM16.6 17C16.3 18.7 15.8 20.3 15.2 21.5C17.5 20.7 19.5 19.1 20.7 17H16.6ZM3.3 17C4.5 19.1 6.5 20.7 8.8 21.5C8.2 20.3 7.7 18.7 7.4 17H3.3ZM16.9 15H21.6C22.2 13.1 22.2 10.9 21.6 9H16.9C17 11 17 13 16.9 15ZM9.2 15H14.9C15.1 13.2 15.1 10.8 14.9 9H9.2C8.9 10.8 8.9 13.2 9.2 15ZM2.5 15H7.2C7 13 7 11 7.2 9H2.5C1.9 10.9 1.9 13.1 2.5 15ZM16.6 7H20.7C19.5 4.9 17.5 3.3 15.2 2.5C15.8 3.7 16.3 5.3 16.6 7ZM9.5 7H14.6C14 3.9 12.9 2 12.1 2C11.3 2 10.1 3.9 9.5 7ZM3.3 7H7.4C7.7 5.3 8.2 3.7 8.8 2.5C6.5 3.3 4.6 4.9 3.3 7Z" fill="currentColor"/>
</g>
<defs>
<clipPath id="clip0_142_3830">
<rect width="24" height="24" fill="currentColor"/>
</clipPath>
</defs>
</svg>
